<svg id="Capa_1" enable-background="new 0 0 512 512" height="512" viewBox="0 0 512 512" width="512" xmlns="http://www.w3.org/2000/svg" xmlns:xlink="http://www.w3.org/1999/xlink"><linearGradient id="SVGID_1_" gradientUnits="userSpaceOnUse" x1="518.347" x2="-75.623" y1="21.866" y2="591.838"><stop offset=".007" stop-color="#9494ff"/><stop offset=".992" stop-color="#ffe8dc" stop-opacity="0"/></linearGradient><g><path d="m512 256c0-27.631-12.504-53.535-34.347-75.837-15.199-15.518-27.854-33.295-37.513-52.751-30.889-62.217-83.554-103.196-143.336-103.196-42.483 0-81.369 20.698-111.403 55.003-19.88 22.707-44.981 40.125-72.987 51.371-67.839 27.242-112.414 73.243-112.414 125.41s44.575 98.168 112.414 125.41c28.006 11.246 53.107 28.664 72.988 51.371 30.034 34.305 68.92 55.003 111.403 55.003 59.782 0 112.447-40.979 143.336-103.196 9.659-19.456 22.314-37.233 37.513-52.751 21.842-22.302 34.346-48.206 34.346-75.837z" fill="url(#SVGID_1_)"/><g><g><path d="m432.205 358.068c-5.21 0-9.68 3.151-11.619 7.65h-46.978l33.047-33.047c1.448.577 3.023.904 4.677.904 6.986 0 12.65-5.664 12.65-12.65s-5.663-12.65-12.65-12.65-12.65 5.663-12.65 12.65c0 1.653.326 3.228.903 4.675l-62.059 62.058h-37.533v-28.934c0-5.523-4.477-10-10-10h-.716l26.864-33.682c.113.14.212.288.342.418l17.15 17.15c-.663 1.536-1.034 3.227-1.034 5.006 0 6.986 5.664 12.65 12.65 12.65s12.65-5.663 12.65-12.65c0-6.986-5.663-12.65-12.65-12.65-1.527 0-2.984.284-4.339.78l-17.357-17.357c-.404-.405-.869-.705-1.356-.942l13.036-16.345c5.82-7.29 5.82-17.65 0-24.94l-9.574-12.005h70.929c1.939 4.499 6.409 7.65 11.619 7.65 6.986 0 12.65-5.664 12.65-12.65s-5.663-12.65-12.65-12.65c-5.209 0-9.68 3.151-11.619 7.65h-72.741c-1.805 0-3.372.965-4.251 2.398l-30.319-38.015h.716c5.103 0 9.304-3.824 9.915-8.761.469.145.957.246 1.474.246h50.206c1.939 4.498 6.409 7.649 11.619 7.649 6.986 0 12.65-5.664 12.65-12.65s-5.663-12.65-12.65-12.65c-5.21 0-9.68 3.151-11.619 7.65h-50.206c-.485 0-.945.091-1.389.22v-36.653c.444.129.904.22 1.389.22h95.206c1.938 4.499 6.409 7.65 11.619 7.65 6.986 0 12.65-5.664 12.65-12.65s-5.663-12.65-12.65-12.65c-5.209 0-9.68 3.151-11.619 7.649h-95.206c-.485 0-.945.091-1.389.22v-1.691c0-5.523-4.477-10-10-10h-27.677c-.098-3.947-.708-7.946-1.878-11.914-1.207-4.091-2.941-7.881-5.089-11.335h107.189c1.939 4.498 6.409 7.649 11.619 7.649 6.986 0 12.65-5.663 12.65-12.65s-5.663-12.65-12.65-12.65c-5.21 0-9.68 3.151-11.619 7.65h-110.207c-1.453 0-2.75.63-3.663 1.619-11.564-11.443-28.836-16.415-45.543-11.486-15.351 4.528-26.554 16.337-30.988 30.548-3.208-.506-6.495-.776-9.846-.776-34.61 0-62.667 28.057-62.667 62.667 0 4.843.568 9.55 1.607 14.076-21.056 10.102-35.595 31.617-35.595 56.531 0 23.536 12.982 44.03 32.169 54.742-2.214 6.609-3.432 13.674-3.432 21.028 0 31.22 21.626 57.374 50.711 64.341 2.12 11.309 7.539 22.12 16.291 30.872 7.703 7.703 17.005 12.824 26.835 15.394 4.127 17.92 20.167 31.287 39.34 31.287 14.24 0 26.749-7.377 33.939-18.511h101.049c1.939 4.499 6.409 7.65 11.619 7.65 6.986 0 12.65-5.663 12.65-12.65s-5.663-12.65-12.65-12.65c-5.209 0-9.68 3.151-11.619 7.649h-96.382c1.153-3.753 1.776-7.739 1.776-11.87 0-1.567-.097-3.112-.272-4.632h22.334c5.523 0 10-4.477 10-10v-17.265h39.604c1.326 0 2.598-.526 3.535-1.465l20.671-20.671c.421.115.856.197 1.314.197h55.468c1.939 4.499 6.409 7.65 11.619 7.65 6.986 0 12.65-5.663 12.65-12.65s-5.664-12.646-12.65-12.646z" fill="#00c" opacity=".1"/><g><g fill="#ff6c6c"><path d="m289.993 181.54h-36.203v-76.199h36.203c5.523 0 10 4.477 10 10v56.199c0 5.523-4.477 10-10 10z"/><path d="m289.993 397.921h-36.203v-76.199h36.203c5.523 0 10 4.477 10 10v56.199c0 5.523-4.477 10-10 10z"/></g><path d="m335.233 264.101-80.25 100.62v-226.18l80.25 100.62c5.82 7.29 5.82 17.65 0 24.94z" fill="#8383ff"/><path d="m311.893 264.101-56.91 71.35v-167.64l56.91 71.35c5.82 7.29 5.82 17.65 0 24.94z" fill="#b3b3ff"/><path d="m262.093 205.154c7.473-10.927 11.85-24.14 11.85-38.377 0-16.19-5.662-31.052-15.1-42.737 3.871-9.391 4.692-20.112 1.594-30.613-7.21-24.443-32.87-38.413-57.313-31.202-15.351 4.528-26.554 16.337-30.988 30.548-3.208-.506-6.495-.776-9.846-.776-34.61 0-62.667 28.057-62.667 62.667 0 4.842.568 9.55 1.607 14.076-21.056 10.101-35.595 31.617-35.595 56.531 0 23.536 12.982 44.03 32.169 54.742-2.214 6.609-3.432 13.674-3.432 21.028 0 31.22 21.626 57.374 50.711 64.341 2.12 11.309 7.539 22.12 16.291 30.871 7.703 7.703 17.005 12.824 26.835 15.394 4.127 17.92 20.167 31.287 39.34 31.287 22.302 0 40.381-18.079 40.381-40.381 0-9.397-3.219-18.037-8.602-24.898 9.039-9.304 14.614-21.991 14.614-35.987 0-14.446-5.936-27.501-15.494-36.876 9.806-15.257 15.494-33.411 15.494-52.894.001-16.927-4.293-32.851-11.849-46.744z" fill="#ffab66"/><path d="m170.866 403.965c5.413 3.537 11.276 6.098 17.343 7.684 4.127 17.92 20.167 31.287 39.34 31.287 21.829 0 39.601-17.323 40.346-38.97h-97.029z" fill="#ffc599"/><path d="m147.373 373.965h115.216c7.1-8.845 11.354-20.071 11.354-32.297 0-.571-.025-1.137-.044-1.703h-166.861c9.12 12.508 22.519 21.699 38.046 25.418.544 2.902 1.31 5.771 2.289 8.582z" fill="#ffc599"/><path d="m176.113 132.281v73.99c0 2.761-2.239 5-5 5h-103.91c4.29-18.8 17.04-34.38 34.03-42.53-1.04-4.53-1.61-9.24-1.61-14.08 0-9.82 2.26-19.11 6.29-27.38h65.2c2.762 0 5 2.239 5 5z" fill="#ff6c6c"/><circle cx="270.042" cy="251.631" fill="#ff6c6c" r="23.751"/><g fill="#00c"><path d="m421.754 338.717h-48.145l41.258-41.258c1.953-1.952 1.953-5.118 0-7.07-1.951-1.953-5.119-1.953-7.07 0l-70.27 70.269h-32.537v-28.938c0-5.382-2.853-10.104-7.122-12.75l21.796-27.329 20.696 20.696c.976.977 2.256 1.465 3.535 1.465s2.56-.488 3.535-1.465c1.953-1.952 1.953-5.118 0-7.07l-21.492-21.492 13.202-16.554c7.327-9.179 7.327-22 .002-31.177l-7.088-8.887h65.7c2.762 0 5-2.238 5-5s-2.238-5-5-5h-73.676l-26.217-32.872c3.875-2.396 6.584-6.501 7.054-11.261h47.839c2.762 0 5-2.238 5-5s-2.238-5-5-5h-47.764v-36.212h95.765c2.762 0 5-2.238 5-5s-2.238-5-5-5h-95.765v-1.473c0-8.271-6.729-15-15-15h-23.051c-.337-2.808-.9-5.595-1.706-8.327-1.028-3.483-2.409-6.799-4.095-9.921h102.567c2.762 0 5-2.238 5-5s-2.238-5-5-5h-109.648c-3.802-4.181-8.313-7.745-13.423-10.527-11.999-6.531-25.822-7.998-38.925-4.135-15.047 4.439-27.097 15.459-32.926 29.881-2.165-.209-4.337-.313-6.492-.313-37.312 0-67.667 30.355-67.667 67.667 0 3.785.325 7.592.968 11.361-15.824 8.745-27.547 23.479-32.443 40.959-.745 2.659.807 5.418 3.466 6.163 2.654.745 5.418-.807 6.163-3.466 4.473-15.965 15.632-29.245 30.617-36.434 2.107-1.011 3.233-3.349 2.71-5.627-.982-4.276-1.48-8.636-1.48-12.957 0-31.798 25.869-57.667 57.667-57.667 3.011 0 6.062.24 9.065.715 2.44.387 4.813-1.081 5.554-3.449 4.107-13.166 14.436-23.35 27.629-27.241 10.539-3.11 21.661-1.931 31.313 3.326 9.652 5.255 16.68 13.954 19.789 24.495 2.683 9.093 2.191 18.53-1.421 27.292-.697 1.69-.416 3.626.732 5.048 9.152 11.33 13.989 25.021 13.989 39.595 0 12.759-3.796 25.053-10.977 35.555-1.06 1.55-1.162 3.562-.266 5.211 2.757 5.07 5.028 10.398 6.791 15.88-13.206 2.594-23.2 14.255-23.2 28.209 0 14.012 10.078 25.708 23.365 28.238-2.464 7.822-5.955 15.282-10.412 22.219-1.281 1.994-.987 4.613.705 6.272 9.024 8.853 13.994 20.681 13.994 33.307 0 12.199-4.688 23.742-13.199 32.503-1.744 1.795-1.893 4.602-.348 6.57 4.93 6.284 7.535 13.826 7.535 21.813 0 19.51-15.872 35.382-35.381 35.382-16.578 0-30.752-11.271-34.469-27.409-.417-1.813-1.808-3.245-3.607-3.716-9.275-2.424-17.769-7.297-24.563-14.093-7.74-7.738-12.896-17.51-14.912-28.257-.363-1.938-1.832-3.481-3.749-3.94-10.584-2.535-20.343-7.903-28.223-15.522-1.987-1.921-5.151-1.866-7.07.119s-1.866 5.15.119 7.07c8.396 8.117 18.631 14.039 29.762 17.245 2.751 11.502 8.588 21.943 17.002 30.356 7.351 7.352 16.382 12.805 26.266 15.884 5.731 19.141 23.189 32.263 43.445 32.263 17.098 0 32.013-9.508 39.748-23.512h96.407c2.762 0 5-2.238 5-5s-2.238-5-5-5h-92.36c.997-3.673 1.544-7.527 1.576-11.504h17.069c8.271 0 15-6.729 15-15v-17.263h34.608c1.326 0 2.598-.526 3.535-1.465l20.672-20.672c.421.115.855.196 1.313.196h56.636c2.762 0 5-2.238 5-5s-2.238-4.999-5-4.999zm-157.245-215.527c1.438-4.161 2.317-8.486 2.648-12.851h22.834c2.757 0 5 2.243 5 5v56.2c0 2.233-1.482 4.107-3.507 4.747l-12.854-16.117c-1.224-13.345-6.11-26.203-14.121-36.979zm-13.218 128.442c0-10.34 8.412-18.752 18.751-18.752s18.751 8.412 18.751 18.752c0 10.339-8.412 18.751-18.751 18.751s-18.751-8.412-18.751-18.751zm13.433 52.506c4.484-7.601 7.945-15.723 10.34-24.203 13.466-2.383 23.729-14.163 23.729-28.303 0-14.194-10.341-26.011-23.883-28.331-1.775-6.15-4.127-12.145-7.025-17.869 5.632-9.013 9.179-19.058 10.484-29.55l7.277 9.125 45.68 57.273c4.395 5.506 4.395 13.196-.002 18.704l-53.9 67.582c-2.125-9.024-6.443-17.378-12.7-24.428zm30.266 83.782c0 2.757-2.243 5-5 5h-18.078c-1.137-5.284-3.217-10.304-6.184-14.895 8.325-9.92 12.951-22.275 13.191-35.297l12.565-15.755c2.024.64 3.505 2.513 3.505 4.746v56.201z"/><path d="m100.242 275.648c-13.313-7.435-23.315-20.072-27.44-34.674-.75-2.657-3.516-4.204-6.171-3.452-2.657.751-4.203 3.514-3.452 6.171 4.475 15.84 14.837 29.708 28.709 38.602-1.67 6.11-2.515 12.398-2.515 18.747 0 6.709.948 13.384 2.818 19.837.635 2.188 2.632 3.609 4.801 3.609.46 0 .929-.063 1.394-.198 2.652-.769 4.18-3.542 3.411-6.194-1.608-5.549-2.424-11.286-2.424-17.054 0-6.615 1.067-13.156 3.173-19.44.764-2.281-.204-4.782-2.304-5.954z"/></g><circle cx="270.042" cy="251.631" fill="#ff9494" r="9.772"/><circle cx="150.072" cy="188.819" fill="#ff9494" r="9.772"/><g><path d="m173.344 247.646c-1.409 0-2.81-.593-3.799-1.747-4.886-5.701-11.983-8.971-19.474-8.971-7.489 0-14.588 3.27-19.474 8.972-1.797 2.097-4.953 2.34-7.051.543-2.097-1.798-2.34-4.954-.543-7.051 6.789-7.921 16.654-12.464 27.067-12.464 10.414 0 20.279 4.543 27.067 12.465 1.797 2.097 1.554 5.253-.544 7.05-.941.808-2.098 1.203-3.249 1.203z" fill="#ff8b00"/></g><g><g><path d="m253.35 181.461c-1.409 0-2.81-.593-3.799-1.747-2.364-2.759-5.799-4.342-9.422-4.342-3.624 0-7.059 1.583-9.423 4.342-1.798 2.097-4.955 2.339-7.05.544-2.098-1.797-2.341-4.953-.544-7.05 4.267-4.98 10.47-7.836 17.017-7.836s12.749 2.855 17.016 7.836c1.797 2.097 1.554 5.253-.544 7.05-.943.807-2.1 1.203-3.251 1.203z" fill="#ff8b00"/></g><g><path d="m246.134 175.784c-.277 0-.558-.023-.84-.071-2.724-.461-4.557-3.041-4.096-5.764.215-1.272.324-2.55.324-3.797 0-12.468-10.143-22.611-22.61-22.611s-22.61 10.144-22.61 22.611c0 1.246.109 2.524.324 3.8.459 2.723-1.376 5.303-4.1 5.762-2.727.461-5.302-1.377-5.762-4.1-.307-1.822-.463-3.66-.463-5.462 0-17.982 14.629-32.611 32.61-32.611s32.61 14.629 32.61 32.611c0 1.805-.156 3.644-.465 5.465-.411 2.441-2.528 4.167-4.922 4.167z" fill="#ff8b00"/></g></g><g><path d="m195.024 325.633c-2.472 0-4.62-1.832-4.951-4.349-1.607-12.218-12.125-21.432-24.465-21.432s-22.856 9.214-24.464 21.432c-.36 2.737-2.858 4.661-5.609 4.305-2.737-.359-4.665-2.871-4.305-5.609 2.259-17.175 17.038-30.127 34.378-30.127s32.119 12.952 34.379 30.127c.36 2.738-1.567 5.249-4.305 5.609-.221.029-.441.044-.658.044z" fill="#ff8b00"/></g><g><path d="m180.367 345.633c-.665 0-1.341-.133-1.989-.415-2.533-1.101-3.694-4.046-2.594-6.578 5.509-12.68 17.991-20.872 31.8-20.872 13.808 0 26.289 8.192 31.8 20.871 1.101 2.533-.061 5.479-2.593 6.579-2.535 1.103-5.478-.061-6.579-2.593-3.922-9.025-12.804-14.857-22.628-14.857s-18.707 5.832-22.628 14.856c-.818 1.884-2.657 3.009-4.589 3.009z" fill="#ff8b00"/></g><g fill="#ff8b00"><circle cx="187.415" cy="256.084" r="6.131"/><circle cx="226.909" cy="217.402" r="6.131"/><circle cx="216.194" cy="111.472" r="6.131"/><circle cx="207.584" cy="380.533" r="6.131"/></g></g><g><circle cx="408.207" cy="121.813" fill="#ff6c6c" r="12.65"/><circle cx="408.207" cy="121.813" fill="#ff9494" r="6.147"/></g><g><circle cx="363.207" cy="168.025" fill="#6c6cff" r="12.65"/><circle cx="363.207" cy="168.025" fill="#9494ff" r="6.147"/></g><g><circle cx="408.207" cy="222.157" fill="#6c6cff" r="12.65"/><circle cx="408.207" cy="222.157" fill="#9494ff" r="6.147"/></g><g><circle cx="432.205" cy="343.717" fill="#6c6cff" r="12.65"/><circle cx="432.205" cy="343.717" fill="#9494ff" r="6.147"/></g><g><g><circle cx="411.332" cy="293.924" fill="#ff6c6c" r="12.65"/><circle cx="411.332" cy="293.924" fill="#ff9494" r="6.147"/></g></g><g><g><circle cx="345.249" cy="310.615" fill="#6c6cff" r="12.65"/><circle cx="345.249" cy="310.615" fill="#9494ff" r="6.147"/></g></g><g><circle cx="374.156" cy="419.424" fill="#ff6c6c" r="12.65"/><circle cx="374.156" cy="419.424" fill="#ff9494" r="6.147"/></g><g><circle cx="374.156" cy="77.092" fill="#6c6cff" r="12.65"/><circle cx="374.156" cy="77.092" fill="#9494ff" r="6.147"/></g></g><g><path d="m76.929 101.997c-1.279 0-2.559-.488-3.535-1.464l-11.293-11.292c-.938-.938-1.465-2.21-1.465-3.536s.526-2.598 1.465-3.536l11.293-11.292c1.951-1.951 5.119-1.952 7.07.001l11.292 11.292c1.953 1.952 1.953 5.118 0 7.07l-11.292 11.292c-.976.977-2.256 1.465-3.535 1.465zm-4.222-16.292 4.222 4.221 4.221-4.221-4.221-4.221z" fill="#ff9d33"/></g><g><path d="m123.924 69.649c-1.279 0-2.559-.488-3.535-1.464l-11.293-11.292c-.938-.938-1.465-2.21-1.465-3.536s.526-2.598 1.465-3.536l11.293-11.292c1.951-1.951 5.119-1.952 7.07.001l11.292 11.292c1.953 1.952 1.953 5.118 0 7.07l-11.292 11.292c-.976.977-2.256 1.465-3.535 1.465zm-4.222-16.292 4.222 4.221 4.221-4.221-4.221-4.221z" fill="#6c6cff"/></g><g><path d="m438.353 455.947c-7.175 0-13.013-5.838-13.013-13.013s5.838-13.012 13.013-13.012 13.012 5.837 13.012 13.012-5.838 13.013-13.012 13.013zm0-16.024c-1.661 0-3.013 1.351-3.013 3.012s1.352 3.013 3.013 3.013 3.012-1.352 3.012-3.013-1.351-3.012-3.012-3.012z" fill="#ff6c6c"/></g><g><path d="m101.953 425.122c-7.175 0-13.012-5.837-13.012-13.012s5.837-13.012 13.012-13.012 13.012 5.837 13.012 13.012-5.837 13.012-13.012 13.012zm0-16.023c-1.661 0-3.012 1.351-3.012 3.012s1.351 3.012 3.012 3.012 3.012-1.351 3.012-3.012-1.351-3.012-3.012-3.012z" fill="#ff6c6c"/></g><g><path d="m426.989 69.26c-7.175 0-13.012-5.838-13.012-13.013s5.837-13.012 13.012-13.012 13.012 5.837 13.012 13.012-5.837 13.013-13.012 13.013zm0-16.025c-1.661 0-3.012 1.351-3.012 3.012s1.351 3.013 3.012 3.013 3.012-1.352 3.012-3.013-1.351-3.012-3.012-3.012z" fill="#ff9d33"/></g></g></g></svg>