<svg id="Capa_1" enable-background="new 0 0 512 512" height="512" viewBox="0 0 512 512" width="512" xmlns="http://www.w3.org/2000/svg" xmlns:xlink="http://www.w3.org/1999/xlink"><linearGradient id="SVGID_1_" gradientUnits="userSpaceOnUse" x1="225.816" x2="864.887" y1="256.003" y2="256.003"><stop offset=".0007011211" stop-color="#fff0d5"/><stop offset=".5112" stop-color="#ffdfff"/><stop offset="1" stop-color="#d9ceff"/></linearGradient><path d="m505.626 291.92c-11.826-34.61-38.138-60.16-69.852-72.202-16.43-6.239-27.346-21.856-27.587-39.429-.005-.384-.012-.769-.021-1.154-1.507-64.582-55.488-116.33-120.077-115.221-38.094.654-71.788 19.355-92.905 47.92-18.185 24.599-46.49 39.965-77.08 39.949-.898 0-1.797.009-2.7.029-61.917 1.355-114.567 54.478-115.393 116.404-.88 65.932 52.302 119.654 118.032 119.654 50.947 0 94.349-32.277 110.886-77.497 4.327-11.832 17.152-18.174 29.283-14.772.151.042.303.085.455.127 11.099 3.064 18.458 13.64 17.55 25.119-1.217 15.383.581 31.255 5.798 46.796 20.521 61.135 87.188 94.685 148.493 74.68 62.711-20.465 96.379-88.184 75.118-150.403z" fill="url(#SVGID_1_)"/><path d="m484.799 337.145-28.793-48.403v-185.268c0-8.28-6.72-15-15-15h-156.529c-3.473-7.326-9.688-13.1-17.32-15.992 4.639-2.566 8.725-6.707 11.735-12.095 1.347-2.411.484-5.457-1.927-6.804-2.411-1.345-5.457-.484-6.804 1.927-3.528 6.317-8.689 9.939-14.16 9.939s-10.632-3.622-14.16-9.939c-1.346-2.409-4.391-3.272-6.804-1.927-2.411 1.347-3.274 4.393-1.927 6.804 3.01 5.388 7.096 9.529 11.735 12.095-7.632 2.892-13.847 8.665-17.32 15.992h-156.53c-8.28 0-15 6.72-15 15v185.268l-28.793 48.403c-1.956 3.288.413 7.453 4.239 7.453h24.555v13.133c0 8.28 6.72 15 15 15h370.011c8.28 0 15-6.72 15-15v-13.133h24.555c3.824 0 6.193-4.166 4.237-7.453z" fill="#590bb2" opacity=".1"/><path d="m312.711 466.438h-113.424l22.683-89.907h68.059z" fill="#afabc6"/><path d="m297.929 407.834h-83.859l7.9-31.303h68.059z" fill="#8e8ca8"/><path d="m456.006 124.474v254.258c0 8.28-6.72 15-15 15h-370.011c-8.28 0-15-6.72-15-15v-254.258c0-8.28 6.72-15 15-15h370.011c8.28 0 15 6.72 15 15z" fill="#ffeadc"/><path d="m369.711 220.512-11.202-11.202c-1.876-1.875-4.419-2.929-7.072-2.929h-23.358c-1.261-7.034-3.52-13.716-6.635-19.9l13.369-13.369h11.7c2.761 0 5.262-1.12 7.071-2.929 1.81-1.81 2.929-4.31 2.929-7.071 0-5.523-4.478-10-10.001-10.001h-15.843c-2.652 0-5.196 1.054-7.071 2.929l-13.724 13.724c-13.386-14.527-32.565-23.635-53.876-23.635s-40.49 9.108-53.876 23.635l-13.722-13.724c-1.876-1.876-4.419-2.929-7.071-2.929h-15.843c-5.523 0-10 4.478-10.001 10.001 0 2.761 1.12 5.262 2.929 7.071 1.81 1.81 4.31 2.929 7.071 2.929h11.7l13.369 13.369c-3.115 6.184-5.375 12.866-6.635 19.9h-23.358c-2.652 0-5.196 1.054-7.071 2.929l-11.202 11.202c-3.905 3.905-3.905 10.238 0 14.143 1.953 1.952 4.512 2.929 7.071 2.929s5.119-.977 7.072-2.929l8.273-8.274h18.383c1.049 11.064 4.559 21.408 9.977 30.485-.042.04-.087.075-.128.116l-15.75 15.75h-11.7c-2.761 0-5.262 1.12-7.071 2.929-1.81 1.81-2.929 4.31-2.929 7.071 0 5.523 4.478 10 10.001 10.001h15.843c2.652 0 5.196-1.054 7.071-2.929l17.247-17.247c13.128 12.435 30.843 20.078 50.353 20.078s37.225-7.642 50.353-20.078l17.247 17.247c1.876 1.876 4.419 2.929 7.071 2.929h15.843c5.523 0 10-4.478 10.001-10.001 0-2.761-1.12-5.262-2.929-7.071-1.81-1.81-4.31-2.929-7.071-2.929h-11.7l-15.75-15.75c-.041-.041-.086-.076-.128-.116 5.418-9.077 8.928-19.421 9.977-30.485h18.383l8.273 8.274c1.953 1.952 4.512 2.929 7.072 2.929 2.559 0 5.119-.977 7.072-2.929 3.901-3.905 3.901-10.238-.004-14.143z" fill="#ffd5b8"/><path d="m145.926 192.619h270.094c2.833 0 5.129-2.296 5.129-5.129 0-2.832-2.296-5.129-5.129-5.129h-270.094c-2.833 0-5.129 2.296-5.129 5.129 0 2.832 2.296 5.129 5.129 5.129z" fill="#d6b0ff"/><path d="m95.98 192.619h24.607c2.833 0 5.129-2.296 5.129-5.129 0-2.832-2.296-5.129-5.129-5.129h-24.607c-2.833 0-5.129 2.296-5.129 5.129 0 2.832 2.296 5.129 5.129 5.129z" fill="#d6b0ff"/><path d="m95.98 212.963h320.04c2.833 0 5.129-2.296 5.129-5.129 0-2.832-2.296-5.129-5.129-5.129h-320.04c-2.833 0-5.129 2.296-5.129 5.129 0 2.832 2.296 5.129 5.129 5.129z" fill="#d6b0ff"/><path d="m421.145 239.033c0 2.83-2.29 5.13-5.12 5.13h-270.098c-2.83 0-5.13-2.3-5.13-5.13 0-1.61.74-3.04 1.9-3.98.88-.72 2.01-1.15 3.23-1.15h270.098c2.83 0 5.12 2.3 5.12 5.13z" fill="#d6b0ff"/><path d="m145.927 233.903h11.25l-.75.75c-1.95 1.95-4.51 2.93-7.07 2.93-2.38 0-4.77-.85-6.66-2.53.88-.72 2.01-1.15 3.23-1.15z" fill="#cca1ff"/><path d="m370.393 233.903c-.21.26-.44.51-.68.75-1.95 1.95-4.51 2.93-7.07 2.93s-5.12-.98-7.07-2.93l-.75-.75z" fill="#cca1ff"/><path d="m95.98 244.159h24.607c2.833 0 5.129-2.296 5.129-5.129 0-2.832-2.296-5.129-5.129-5.129h-24.607c-2.833 0-5.129 2.296-5.129 5.129s2.296 5.129 5.129 5.129z" fill="#d6b0ff"/><path d="m95.98 264.503h320.04c2.833 0 5.129-2.296 5.129-5.129 0-2.832-2.296-5.129-5.129-5.129h-320.04c-2.833 0-5.129 2.296-5.129 5.129s2.296 5.129 5.129 5.129z" fill="#d6b0ff"/><path d="m421.145 290.574c0 2.83-2.29 5.12-5.12 5.12h-270.098c-2.83 0-5.13-2.29-5.13-5.12 0-2.84 2.3-5.13 5.13-5.13h270.098c2.83 0 5.12 2.29 5.12 5.13z" fill="#d6b0ff"/><path d="m157.287 285.444h32.471l-1.36 1.36c-1.87 1.88-4.42 2.93-7.07 2.93h-15.84c-3.401 0-6.401-1.7-8.201-4.29z" fill="#cca1ff"/><path d="m231.549 285.444h48.901c-7.64 2.71-15.87 4.19-24.451 4.19-8.579 0-16.81-1.48-24.45-4.19z" fill="#cca1ff"/><path d="m354.713 285.444c-1.8 2.59-4.8 4.29-8.2 4.29h-15.84c-2.65 0-5.2-1.05-7.07-2.93l-1.36-1.36z" fill="#cca1ff"/><path d="m95.98 295.699h24.607c2.833 0 5.129-2.296 5.129-5.129s-2.296-5.129-5.129-5.129h-24.607c-2.833 0-5.129 2.296-5.129 5.129s2.296 5.129 5.129 5.129z" fill="#d6b0ff"/><path d="m95.98 316.044h320.04c2.833 0 5.129-2.296 5.129-5.129 0-2.832-2.296-5.129-5.129-5.129h-320.04c-2.833 0-5.129 2.296-5.129 5.129 0 2.832 2.296 5.129 5.129 5.129z" fill="#d6b0ff"/><path d="m456.006 157.647v-33.172c0-8.285-6.716-15-15-15h-370.011c-8.285 0-15 6.716-15 15v33.172z" fill="#c182f9"/><path d="m456.006 343.336v35.391c0 8.29-6.72 15-15 15h-370.011c-8.28 0-15-6.71-15-15v-35.391z" fill="#cecae0"/><path d="m456.006 343.336v34.261h-91.263c-3.83 0-6.19-4.16-4.24-7.45l15.95-26.811z" fill="#afabc6"/><path d="m147.257 377.597h-91.263v-34.261h79.552l15.95 26.811c1.951 3.29-.409 7.45-4.239 7.45z" fill="#afabc6"/><g fill="#ff8736"><path d="m362.64 225.583c-2.559 0-5.119-.977-7.071-2.929l-8.273-8.274h-22.274c-5.523 0-10-4.478-10-10 0-5.523 4.477-10 10-10h26.416c2.652 0 5.196 1.054 7.071 2.929l11.202 11.202c3.905 3.905 3.905 10.238 0 14.143-1.953 1.953-4.512 2.929-7.071 2.929z"/><path d="m149.36 225.583c2.559 0 5.119-.977 7.072-2.929l8.273-8.274h22.274c5.523 0 10-4.478 10-10 0-5.523-4.477-10-10-10h-26.416c-2.652 0-5.196 1.054-7.072 2.929l-11.202 11.202c-3.905 3.905-3.905 10.238 0 14.143 1.953 1.953 4.512 2.929 7.071 2.929z"/><path d="m353.585 158.183c-1.81 1.81-4.31 2.929-7.071 2.929h-11.7l-15.75 15.75c-3.905 3.905-10.237 3.905-14.143 0-3.905-3.905-3.905-10.237 0-14.143l18.679-18.679c1.876-1.876 4.419-2.929 7.071-2.929h15.843c5.523 0 10 4.478 10.001 10.001-.001 2.76-1.12 5.261-2.93 7.071z"/><path d="m158.415 158.183c1.81 1.81 4.31 2.929 7.071 2.929h11.7l15.75 15.75c3.905 3.905 10.237 3.905 14.143 0 3.905-3.905 3.905-10.237 0-14.143l-18.679-18.679c-1.876-1.876-4.419-2.929-7.071-2.929h-15.843c-5.523 0-10 4.478-10.001 10.001.001 2.76 1.12 5.261 2.93 7.071z"/><path d="m158.415 263.661c1.81-1.81 4.31-2.929 7.071-2.929h11.7l15.75-15.75c3.905-3.905 10.237-3.905 14.143 0 3.905 3.905 3.905 10.237 0 14.143l-18.679 18.679c-1.876 1.876-4.419 2.929-7.071 2.929h-15.843c-5.523 0-10-4.478-10.001-10.001.001-2.761 1.12-5.261 2.93-7.071z"/><path d="m353.585 263.661c-1.81-1.81-4.31-2.929-7.071-2.929h-11.7l-15.75-15.75c-3.905-3.905-10.237-3.905-14.143 0-3.905 3.905-3.905 10.237 0 14.143l18.679 18.679c1.876 1.876 4.419 2.929 7.071 2.929h15.843c5.523 0 10-4.478 10.001-10.001-.001-2.761-1.12-5.261-2.93-7.071z"/></g><circle cx="256" cy="122.95" fill="#ffd5b8" r="31.501"/><circle cx="256" cy="207.381" fill="#fdd250" r="73.253"/><path d="m364.743 365.599h115.817c3.825 0 6.194-4.166 4.239-7.453l-57.909-97.348c-1.912-3.214-6.565-3.214-8.477 0l-57.909 97.348c-1.955 3.287.414 7.453 4.239 7.453z" fill="#fdd250"/><path d="m422.652 332.767c-2.761 0-5-2.238-5-5v-29.391c0-2.762 2.239-5 5-5s5 2.238 5 5v29.391c0 2.761-2.239 5-5 5z" fill="#f5f4f9"/><path d="m422.652 348.61c-2.761 0-5-2.238-5-5v-.115c0-2.762 2.239-5 5-5s5 2.238 5 5v.115c0 2.762-2.239 5-5 5z" fill="#f5f4f9"/><path d="m31.44 365.599h115.818c3.825 0 6.194-4.166 4.239-7.453l-57.909-97.348c-1.912-3.214-6.565-3.214-8.477 0l-57.909 97.348c-1.957 3.287.412 7.453 4.238 7.453z" fill="#fdd250"/><path d="m89.348 332.767c-2.761 0-5-2.238-5-5v-29.391c0-2.762 2.239-5 5-5s5 2.238 5 5v29.391c0 2.761-2.239 5-5 5z" fill="#f5f4f9"/><path d="m89.348 348.61c-2.761 0-5-2.238-5-5v-.115c0-2.762 2.239-5 5-5s5 2.238 5 5v.115c0 2.762-2.239 5-5 5z" fill="#f5f4f9"/><path d="m160.932 448.132c-1.28 0-2.559-.488-3.536-1.465l-10.995-10.995c-1.953-1.952-1.953-5.118 0-7.07l10.995-10.995c1.953-1.953 5.118-1.953 7.071 0l10.995 10.995c1.953 1.952 1.953 5.118 0 7.07l-10.995 10.995c-.976.977-2.255 1.465-3.535 1.465zm-3.924-15.995 3.924 3.924 3.924-3.924-3.924-3.924z" fill="#c182f9"/><path d="m113.402 464.211c-1.326 0-2.598-.527-3.536-1.465l-10.994-10.996c-1.953-1.952-1.953-5.118 0-7.07l10.995-10.995c1.953-1.953 5.118-1.953 7.071 0l10.996 10.995c.938.938 1.464 2.209 1.464 3.535s-.527 2.598-1.464 3.535l-10.996 10.996c-.938.939-2.209 1.465-3.536 1.465zm-3.924-15.996 3.924 3.925 3.924-3.925-3.924-3.924z" fill="#ffa052"/><path d="m362.608 72.559c-1.28 0-2.559-.488-3.536-1.465l-10.996-10.995c-.938-.938-1.464-2.209-1.464-3.535s.527-2.598 1.464-3.535l10.996-10.996c.938-.938 2.209-1.465 3.536-1.465 1.326 0 2.598.527 3.536 1.465l10.995 10.996c1.953 1.952 1.953 5.118 0 7.07l-10.995 10.995c-.977.976-2.256 1.465-3.536 1.465zm-3.924-15.996 3.924 3.924 3.924-3.924-3.924-3.925z" fill="#ffa052"/><path d="m188.269 80.205c-2.761 0-5-2.238-5-5 0-3.318-2.7-6.019-6.018-6.019-2.761 0-5-2.238-5-5s2.239-5 5-5c3.318 0 6.018-2.7 6.018-6.019 0-2.762 2.239-5 5-5s5 2.238 5 5c0 3.318 2.7 6.019 6.019 6.019 2.761 0 5 2.238 5 5s-2.239 5-5 5c-3.319 0-6.019 2.7-6.019 6.019 0 2.762-2.239 5-5 5z" fill="#ffe783"/><path d="m94.077 138.633c2.761 0 5-2.238 5-5v-.146c0-2.762-2.239-5-5-5s-5 2.238-5 5v.146c0 2.762 2.239 5 5 5z" fill="#590bb2"/><path d="m113.402 138.633c2.761 0 5-2.238 5-5v-.146c0-2.762-2.239-5-5-5s-5 2.238-5 5v.146c0 2.762 2.239 5 5 5z" fill="#590bb2"/><path d="m132.728 138.633c2.761 0 5-2.238 5-5v-.146c0-2.762-2.239-5-5-5s-5 2.238-5 5v.146c0 2.762 2.239 5 5 5z" fill="#590bb2"/><path d="m489.097 355.589-28.094-47.226c0-.009.003-.018.003-.027v-183.861c0-11.028-8.972-20.001-20-20.001h-129.214c-2.761 0-5 2.238-5 5s2.239 5 5 5h129.213c5.514 0 10 4.486 10 10.001v28.172h-89.571c.051-.507.079-1.019.079-1.535 0-8.271-6.729-15-15-15.001h-15.845c-4.007.002-7.773 1.563-10.605 4.395l-10.196 10.196c-5.907-5.616-12.673-10.335-20.099-13.902 1.806-4.385 2.732-9.029 2.732-13.85 0-14.421-8.407-26.912-20.576-32.838 2.67-2.343 5.039-5.276 6.966-8.725 1.347-2.411.484-5.457-1.927-6.804-2.411-1.345-5.457-.483-6.804 1.927-3.528 6.316-8.689 9.938-14.16 9.938s-10.632-3.622-14.16-9.938c-1.346-2.41-4.392-3.272-6.804-1.927-2.411 1.347-3.273 4.393-1.927 6.804 1.926 3.448 4.296 6.382 6.966 8.725-6.482 3.156-11.891 8.179-15.536 14.362h-153.543c-11.028 0-20 8.973-20 20.001v183.278c0 .18.034.35.053.526l-28.143 47.31c-1.85 3.109-1.886 6.843-.098 9.987 1.789 3.145 5.016 5.022 8.634 5.022h19.555v8.13c0 11.028 8.972 20.001 20 20.001h140.218l-15.819 62.703h-15.33c-2.761 0-5 2.238-5 5s2.239 5 5 5h151.872c2.761 0 5-2.238 5-5s-2.239-5-5-5h-15.331l-15.819-62.703h140.219c11.028 0 20-8.973 20-20.001v-8.13h19.555c3.618 0 6.845-1.877 8.633-5.021s1.752-6.878-.097-9.988zm-161.961-208.014c.944-.944 2.2-1.464 3.535-1.465h15.842c2.758.001 5.001 2.244 5.001 5.001 0 1.336-.52 2.591-1.465 3.536-.944.944-2.201 1.465-3.535 1.465l-11.7-.001c-1.326 0-2.598.526-3.536 1.465l-8.717 8.717c-1.786-2.882-3.751-5.641-5.884-8.259zm-139.389 59.806c0-14.068 4.281-27.154 11.604-38.028h51.372v106.057c-35.175-2.705-62.976-32.172-62.976-68.029zm10.873 53.133-13.755 13.755c-.944.944-2.2 1.464-3.535 1.465h-15.842c-2.758-.001-5.001-2.244-5.001-5.001 0-1.336.52-2.591 1.465-3.536.944-.944 2.201-1.465 3.535-1.465l11.7.001c1.326 0 2.598-.526 3.536-1.465l11.554-11.554c1.95 2.734 4.065 5.342 6.343 7.8zm-20.822-51.133h-13.093c-1.326 0-2.598.526-3.536 1.465l-8.272 8.272c-.945.944-2.202 1.465-3.537 1.465s-2.591-.521-3.536-1.464c-1.95-1.95-1.95-5.122 0-7.072l11.202-11.202c.945-.944 2.201-1.465 3.536-1.465h17.59c-.268 2.631-.406 5.3-.406 8.001.001.671.035 1.333.052 2zm11.641-43.088-8.717-8.717c-.938-.938-2.21-1.465-3.536-1.465l-11.698.001c-1.337 0-2.593-.521-3.538-1.465-.945-.945-1.465-2.2-1.465-3.536 0-2.757 2.244-5 5-5.001h15.841c1.337.001 2.593.521 3.538 1.465l10.459 10.459c-2.133 2.618-4.098 5.377-5.884 8.259zm71.285 3.06h51.925c7.324 10.874 11.604 23.96 11.604 38.028 0 36.045-28.092 65.634-63.529 68.071zm59 83.361 11.554 11.554c.938.938 2.21 1.465 3.536 1.465l11.698-.001c1.337 0 2.593.521 3.538 1.465.945.945 1.465 2.2 1.465 3.536 0 2.757-2.244 5-5 5.001h-15.841c-1.337-.001-2.593-.521-3.538-1.465l-13.755-13.755c2.277-2.458 4.392-5.066 6.343-7.8zm14.123-53.334h17.59c1.335 0 2.591.521 3.536 1.465l11.202 11.202c1.95 1.95 1.95 5.122 0 7.071-.945.944-2.201 1.465-3.536 1.465s-2.592-.521-3.536-1.464l-8.273-8.273c-.938-.938-2.209-1.465-3.536-1.465h-13.093c.017-.667.051-1.329.051-2 .001-2.701-.137-5.37-.405-8.001zm-29.406-40.027h-96.882c12.375-12.48 29.519-20.225 48.441-20.225s36.066 7.744 48.441 20.225zm-48.441-62.905c14.613 0 26.501 11.889 26.501 26.501 0 3.529-.681 6.925-2.01 10.125-7.71-2.548-15.938-3.947-24.491-3.947-8.551 0-16.777 1.398-24.485 3.945-1.316-3.192-2.016-6.644-2.016-10.123 0-14.612 11.888-26.501 26.501-26.501zm-185.005 18.026h149.508c-.65 2.722-1.004 5.557-1.004 8.476 0 4.753.95 9.473 2.74 13.846-7.429 3.568-14.198 8.287-20.106 13.906l-10.196-10.196c-2.832-2.832-6.598-4.393-10.607-4.395h-15.844c-8.271.001-15 6.73-15 15.001 0 .516.028 1.028.079 1.535h-89.571v-28.172c0-5.515 4.486-10.001 10.001-10.001zm-10.001 48.172h94.492c.129 0 .249-.028.375-.038 2.695 2.264 6.062 3.503 9.625 3.504l9.629-.001 9.429 9.429c-1.975 4.414-3.55 9.041-4.684 13.839h-19.297c-4.007 0-7.774 1.561-10.607 4.395l-11.202 11.202c-5.849 5.849-5.849 15.364 0 21.214 2.833 2.833 6.6 4.393 10.606 4.393s7.772-1.56 10.607-4.394l6.809-6.809h11.892c1.355 8.765 4.179 17.047 8.196 24.604l-11.748 11.748-9.631-.001c-4.006.001-7.772 1.562-10.605 4.395s-4.394 6.6-4.394 10.606c0 8.271 6.729 15 15 15.001h15.845c4.007-.002 7.773-1.563 10.605-4.395l13.931-13.931c13.5 11.294 30.847 18.128 49.764 18.216.032 0 .061.009.093.009.019 0 .037-.005.056-.006.074 0 .147.006.221.006 19.061 0 36.545-6.858 50.133-18.226l13.93 13.931c2.832 2.832 6.598 4.393 10.607 4.395h15.844c8.271-.001 15-6.73 15-15.001 0-4.007-1.561-7.773-4.394-10.606s-6.599-4.394-10.607-4.395l-9.629.001-11.748-11.748c4.017-7.557 6.841-15.839 8.196-24.604h11.892l6.81 6.81c2.834 2.833 6.601 4.393 10.606 4.393 4.006 0 7.773-1.56 10.607-4.394 5.849-5.849 5.849-15.364 0-21.213l-11.202-11.202c-2.833-2.834-6.601-4.395-10.607-4.395h-19.299c-1.134-4.798-2.71-9.425-4.684-13.839l9.429-9.429 9.631.001c3.545-.001 6.899-1.227 9.587-3.471.018 0 .034.005.052.005h94.851v128.91l-19.818-33.315c-1.808-3.039-4.999-4.854-8.536-4.854s-6.728 1.814-8.536 4.854l-47.646 80.097h-220.939l-47.647-80.096c-1.808-3.04-4.999-4.854-8.536-4.854s-6.728 1.814-8.536 4.854l-19.818 33.316zm28.355 100.807 57.788 97.146h-115.578zm216.943 197.98h-100.585l15.819-62.703h68.947zm149.714-100.834c-2.761 0-5 2.238-5 5v13.13c0 5.515-4.486 10.001-10 10.001h-370.011c-5.514 0-10-4.486-10-10.001v-8.13h86.263c3.618 0 6.845-1.877 8.633-5.021 1.789-3.145 1.752-6.878-.097-9.988l-4.313-7.251h209.041l-4.314 7.252c-1.849 3.109-1.886 6.843-.097 9.987 1.788 3.145 5.016 5.021 8.633 5.021h63.722c2.761 0 5-2.238 5-5s-2.239-5-5-5l-63.602-.001 57.789-97.145 57.788 97.146z" fill="#590bb2"/></svg>