<svg id="Capa_1" enable-background="new 0 0 512 512" height="512" viewBox="0 0 512 512" width="512" xmlns="http://www.w3.org/2000/svg" xmlns:xlink="http://www.w3.org/1999/xlink"><linearGradient id="SVGID_1_" gradientUnits="userSpaceOnUse" x1="496.664" x2="-81.336" y1="62.747" y2="450.747"><stop offset=".007" stop-color="#9494ff"/><stop offset=".992" stop-color="#ffe8dc" stop-opacity="0"/></linearGradient><g><path d="m428.41 171.888c-8.356-8.356-18.026-14.923-28.717-19.765-28.021-12.69-50.051-35.407-62.434-63.565-22.917-52.113-74.975-88.512-135.546-88.558-79.311-.06-145.162 63.163-148.147 142.418-1.277 33.922 8.857 65.421 26.87 90.969 22.877 32.448 28.821 73.782 17.021 111.69-16.764 53.857-10.919 104.898 20.973 136.791 55.888 55.888 170.586 31.804 256.185-53.795 85.598-85.599 109.683-200.296 53.795-256.185z" fill="url(#SVGID_1_)"/><g><path d="m319.628 461.244v-74.769c0-6.303 3.204-12.154 8.479-15.604 38.788-25.366 73.492-65.415 77.2-112.983 10.236-131.298-117.399-202.396-221.082-131.021 0 0-76.566 53.374-78.11 170.03-.034 2.599 2.058 4.733 4.657 4.733h29.459s-6.555 87.148 8.623 95.12c6.778 3.56 24.631 5.251 42.911 3.942v60.551c0 2.761 2.239 5 5 5h117.863c2.761.001 5-2.238 5-4.999z" fill="#00c" opacity=".1"/><g><path d="m319.628 439.244v-79.769c0-6.303 3.204-12.154 8.479-15.604 38.788-25.366 73.492-65.415 77.2-112.983 10.236-131.298-117.399-202.396-221.082-131.021 0 0-76.566 53.374-78.11 170.03-.034 2.599 2.058 4.733 4.657 4.733h29.459s-6.555 87.148 8.623 95.12c6.778 3.56 24.631 5.251 42.911 3.942v65.551h127.863z" fill="#ffab66"/><path d="m404.93 197.79h-287.2c13.16-40.31 34.68-67.65 49.66-82.98h201.56c19.27 21.23 32.44 49.49 35.98 82.98z" fill="#ffc599"/><g><path d="m266.668 202.79h-43.002c-2.761 0-5-2.238-5-5s2.239-5 5-5h43.002c2.761 0 5 2.238 5 5s-2.238 5-5 5z" fill="#ff7300"/></g><g><path d="m221.667 242.361h-57.808c-2.761 0-5-2.238-5-5s2.239-5 5-5h52.808v-63.633h-28.808c-2.761 0-5-2.238-5-5s2.239-5 5-5h33.808c2.761 0 5 2.238 5 5v73.633c0 2.762-2.239 5-5 5z" fill="#ff7300"/></g><circle cx="184.697" cy="163.729" fill="#6c6cff" r="12.65"/><circle cx="159.397" cy="237.361" fill="#6c6cff" r="12.65"/><circle cx="159.397" cy="237.361" fill="#9494ff" r="6.147"/><g><g><path d="m241.215 304.604h-99.374c-2.761 0-5-2.238-5-5s2.239-5 5-5h99.374c2.761 0 5 2.238 5 5s-2.238 5-5 5z" fill="#ff7300"/></g><g><circle cx="251.667" cy="299.605" fill="#6c6cff" r="12.65"/><circle cx="251.667" cy="299.605" fill="#9494ff" r="6.147"/></g></g><circle cx="184.697" cy="163.729" fill="#9494ff" r="6.147"/><g><path d="m309.864 150.335c-2.761 0-5-2.238-5-5v-65.701c0-2.762 2.239-5 5-5s5 2.238 5 5v65.701c0 2.762-2.239 5-5 5z" fill="#ff7300"/></g><g><path d="m271.667 395.393c-2.761 0-5-2.238-5-5v-51.975c0-2.762 2.239-5 5-5h33.197v-89.692c0-2.762 2.239-5 5-5s5 2.238 5 5v94.692c0 2.762-2.239 5-5 5h-33.197v46.975c0 2.761-2.239 5-5 5z" fill="#ff7300"/></g><g><circle cx="271.667" cy="396.791" fill="#6c6cff" r="12.65"/><circle cx="271.667" cy="396.791" fill="#9494ff" r="6.147"/></g><g><path d="m224.791 443.049c-2.761 0-5-2.238-5-5v-66.582c0-2.762 2.239-5 5-5s5 2.238 5 5v66.582c0 2.762-2.239 5-5 5z" fill="#ff7300"/></g><g><circle cx="224.791" cy="358.817" fill="#6c6cff" r="12.65"/><circle cx="224.791" cy="358.817" fill="#9494ff" r="6.147"/></g><g><path d="m395.424 274.075h-44.424c-2.761 0-5-2.238-5-5s2.239-5 5-5h44.424c2.761 0 5 2.238 5 5s-2.239 5-5 5z" fill="#ff7300"/></g><g><g><circle cx="344.853" cy="269.075" fill="#6c6cff" r="12.65"/><circle cx="344.853" cy="269.075" fill="#9494ff" r="6.147"/></g></g><g><path d="m319.628 380.333c-2.761 0-5-2.238-5-5v-15.857c0-7.992 4.016-15.39 10.742-19.789 63.187-41.32 73.466-90.122 74.952-109.187 2.261-29.002-2.19-55.704-13.231-79.364-10.166-21.785-25.823-40.173-45.28-53.177-39.547-26.432-90.26-28.435-135.656-5.359-2.462 1.251-5.471.27-6.723-2.191-1.251-2.462-.27-5.472 2.191-6.723 48.665-24.736 103.148-22.51 145.744 5.959 20.977 14.021 37.847 33.821 48.785 57.263 11.778 25.241 16.535 53.628 14.139 84.37-3.384 43.41-32.342 85.974-79.449 116.778-3.892 2.546-6.215 6.814-6.215 11.42v15.857c.001 2.762-2.238 5-4.999 5z" fill="#00c"/></g><g><path d="m319.628 444.244c-2.761 0-5-2.238-5-5v-29.91c0-2.762 2.239-5 5-5s5 2.238 5 5v29.91c0 2.762-2.239 5-5 5z" fill="#00c"/></g><g><path d="m191.765 444.244c-2.761 0-5-2.238-5-5v-60.264c-15.11.616-32.213-.589-40.236-4.803-5.646-2.966-12.189-11.889-12.677-54.92-.182-16.013.575-31.683 1.045-39.627h-24.125c-2.601 0-5.04-1.021-6.868-2.873-1.833-1.856-2.823-4.316-2.789-6.926 1.246-94.106 50.25-147.945 71.262-166.725 2.059-1.842 5.22-1.664 7.06.396 1.84 2.059 1.663 5.22-.396 7.06-20.001 17.878-66.619 69.134-67.922 159.068h29.112c1.391 0 2.719.58 3.666 1.6s1.425 2.388 1.32 3.775c-.016.216-1.622 21.886-1.365 44.196.483 42.047 7.048 45.976 7.328 46.122 5.085 2.672 20.911 4.764 40.229 3.382 1.385-.1 2.749.382 3.764 1.328 1.016.945 1.593 2.271 1.593 3.659v65.551c-.001 2.763-2.24 5.001-5.001 5.001z" fill="#00c"/></g><g><circle cx="309.864" cy="194.53" fill="#9494ff" r="49.195"/><circle cx="309.864" cy="194.53" fill="#d9d9ff" r="24.637"/><circle cx="296.578" cy="219.167" fill="#ff6c6c" r="11.35"/></g></g><g><path d="m70.801 271.794c-7.175 0-13.012-5.838-13.012-13.013s5.837-13.012 13.012-13.012 13.012 5.837 13.012 13.012-5.837 13.013-13.012 13.013zm0-16.024c-1.661 0-3.012 1.351-3.012 3.012s1.351 3.013 3.012 3.013 3.012-1.352 3.012-3.013-1.351-3.012-3.012-3.012z" fill="#ff6c6c"/></g><g><path d="m429.76 410.938c-7.175 0-13.012-5.837-13.012-13.012s5.837-13.012 13.012-13.012 13.012 5.837 13.012 13.012-5.837 13.012-13.012 13.012zm0-16.024c-1.661 0-3.012 1.351-3.012 3.012s1.351 3.012 3.012 3.012 3.012-1.351 3.012-3.012-1.351-3.012-3.012-3.012z" fill="#ff6c6c"/></g><g><path d="m375.762 85.311c-1.28 0-2.559-.488-3.536-1.465l-11.292-11.292c-1.953-1.952-1.953-5.118 0-7.07l11.292-11.293c.938-.938 2.209-1.465 3.536-1.465s2.598.526 3.536 1.465l11.292 11.293c.938.938 1.464 2.209 1.464 3.535s-.527 2.598-1.464 3.535l-11.292 11.292c-.977.976-2.256 1.465-3.536 1.465zm-4.221-16.292 4.221 4.221 4.221-4.221-4.221-4.222z" fill="#6c6cff"/></g><g><path d="m78.813 334.703c-1.326 0-2.598-.526-3.536-1.465l-11.292-11.293c-.938-.938-1.464-2.209-1.464-3.535s.527-2.598 1.464-3.535l11.292-11.292c1.953-1.953 5.118-1.953 7.071 0l11.292 11.292c.938.938 1.464 2.209 1.464 3.535s-.527 2.598-1.464 3.535l-11.292 11.293c-.937.939-2.209 1.465-3.535 1.465zm-4.221-16.293 4.221 4.222 4.221-4.222-4.221-4.221z" fill="#6c6cff"/></g><g><path d="m373.212 390.567c-1.28 0-2.559-.488-3.536-1.465l-11.292-11.292c-.938-.938-1.464-2.209-1.464-3.535s.527-2.598 1.464-3.535l11.292-11.292c1.953-1.953 5.118-1.953 7.071 0l11.292 11.292c.938.938 1.464 2.209 1.464 3.535s-.527 2.598-1.464 3.535l-11.292 11.292c-.976.977-2.255 1.465-3.535 1.465zm-4.221-16.292 4.221 4.221 4.221-4.221-4.221-4.221z" fill="#ff9d33"/></g></g></g></svg>