<?xml version="1.0" encoding="UTF-8" standalone="no"?>
<svg
   xmlns:dc="http://purl.org/dc/elements/1.1/"
   xmlns:cc="http://creativecommons.org/ns#"
   xmlns:rdf="http://www.w3.org/1999/02/22-rdf-syntax-ns#"
   xmlns:svg="http://www.w3.org/2000/svg"
   xmlns="http://www.w3.org/2000/svg"
   xmlns:sodipodi="http://sodipodi.sourceforge.net/DTD/sodipodi-0.dtd"
   xmlns:inkscape="http://www.inkscape.org/namespaces/inkscape"
   inkscape:version="1.0 (4035a4fb49, 2020-05-01)"
   sodipodi:docname="010-object.svg"
   version="1.1"
   width="512"
   viewBox="0 0 512 512"
   height="512"
   enable-background="new 0 0 512 512"
   id="Capa_1">
  <metadata
     id="metadata1011">
    <rdf:RDF>
      <cc:Work
         rdf:about="">
        <dc:format>image/svg+xml</dc:format>
        <dc:type
           rdf:resource="http://purl.org/dc/dcmitype/StillImage" />
      </cc:Work>
    </rdf:RDF>
  </metadata>
  <defs
     id="defs1009" />
  <sodipodi:namedview
     inkscape:current-layer="Capa_1"
     inkscape:window-maximized="1"
     inkscape:window-y="-8"
     inkscape:window-x="-8"
     inkscape:cy="256"
     inkscape:cx="256"
     inkscape:zoom="1.0507812"
     showgrid="false"
     id="namedview1007"
     inkscape:window-height="705"
     inkscape:window-width="1366"
     inkscape:pageshadow="2"
     inkscape:pageopacity="0"
     guidetolerance="10"
     gridtolerance="10"
     objecttolerance="10"
     borderopacity="1"
     bordercolor="#666666"
     pagecolor="#ffffff" />
  <linearGradient
     gradientTransform="matrix(-1,0,0,1,511.99953,0)"
     y2="256"
     y1="256"
     x2="512"
     x1="0"
     gradientUnits="userSpaceOnUse"
     id="SVGID_1_">
    <stop
       id="stop941"
       stop-opacity="0"
       stop-color="#ffdbed"
       offset="0" />
    <stop
       id="stop943"
       stop-color="#ffdbed"
       offset="1" />
  </linearGradient>
  <path
     style="fill:url(#SVGID_1_)"
     id="path946"
     fill="url(#SVGID_1_)"
     d="m 60.201531,43.963 c 160.555999,-97.869 410.509999,-8.611 439.593999,61.949 38.908,94.394 -26.578,110.528 -38.743,187.874 -9.761,62.061 51.182,121.495 16.394,176.282 -37.883,59.663 -163.465,44.681 -211.198,16.447 -87.376,-51.683 -43.309,-112.012 -84.684,-187.299 -39.407,-71.707 -116.243999,-42.625 -160.960999,-99.99 -42.5,-54.521 -14.3099997,-122.402 39.598,-155.263 z" />
  <g
     id="g956"
     opacity=".2"
     fill="#6583fe">
    <path
       id="path948"
       d="m339.917 296.744-183.354-148.37c-3.582-2.898-8.851.144-8.132 4.695l36.815 232.975c.679 4.296 6.122 5.764 8.868 2.391l54.742-67.233c.779-.957 1.882-1.594 3.1-1.79l85.596-13.792c4.295-.692 5.746-6.14 2.365-8.876z" />
    <path
       id="path950"
       d="m438.226 106.948c2.761 0 5-2.239 5-5v-26.333c0-2.761-2.239-5-5-5h-26.333c-2.761 0-5 2.239-5 5v8.167h-143.651v-8.167c0-2.761-2.239-5-5-5h-26.333c-2.761 0-5 2.239-5 5v8.167h-143.651v-8.167c0-2.761-2.239-5-5-5h-26.333c-2.761 0-5 2.239-5 5v26.333c0 2.761 2.239 5 5 5h8.166v143.651h-8.166c-2.761 0-5 2.239-5 5v26.333c0 2.761 2.239 5 5 5h8.166v143.651h-8.166c-2.761 0-5 2.239-5 5v26.333c0 2.761 2.239 5 5 5h26.333c2.761 0 5-2.239 5-5v-8.167h143.651v8.167c0 2.761 2.239 5 5 5h26.333c2.761 0 5-2.239 5-5v-8.167h143.651v8.167c0 2.761 2.239 5 5 5h26.333c2.761 0 5-2.239 5-5v-26.333c0-2.761-2.239-5-5-5h-8.166v-143.651h8.166c2.761 0 5-2.239 5-5v-26.333c0-2.761-2.239-5-5-5h-8.166v-143.651zm-18.166 143.651h-8.167c-2.761 0-5 2.239-5 5v26.333c0 2.761 2.239 5 5 5h8.167v143.651h-8.167c-2.761 0-5 2.239-5 5v8.167h-143.651v-8.167c0-2.761-2.239-5-5-5h-26.333c-2.761 0-5 2.239-5 5v8.167h-143.651v-8.167c0-2.761-2.239-5-5-5h-8.167v-143.651h8.167c2.761 0 5-2.239 5-5v-26.333c0-2.761-2.239-5-5-5h-8.167v-143.651h8.167c2.761 0 5-2.239 5-5v-8.167h143.651v8.167c0 2.761 2.239 5 5 5h26.333c2.761 0 5-2.239 5-5v-8.167h143.651v8.167c0 2.761 2.239 5 5 5h8.167z" />
    <path
       id="path952"
       d="m387.089 199.897h-88.053c-2.762 0-5 2.239-5 5s2.238 5 5 5h88.053c2.762 0 5-2.239 5-5s-2.238-5-5-5z" />
    <path
       id="path954"
       d="m362.016 164.298c2.762 0 5-2.239 5-5 0-3.646 2.967-6.613 6.613-6.613s6.613 2.967 6.613 6.613c0 2.761 2.238 5 5 5s5-2.239 5-5c0-4.518-1.818-8.615-4.755-11.613 2.936-2.998 4.755-7.095 4.755-11.613 0-9.161-7.453-16.613-16.613-16.613s-16.613 7.453-16.613 16.613c0 4.518 1.818 8.615 4.755 11.613-2.936 2.998-4.755 7.095-4.755 11.613 0 2.762 2.238 5 5 5zm11.613-34.839c3.646 0 6.613 2.967 6.613 6.613s-2.967 6.613-6.613 6.613-6.613-2.967-6.613-6.613 2.967-6.613 6.613-6.613z" />
  </g>
  <path
     id="path958"
     fill="#01eca5"
     d="m148.43 133.069 36.815 232.975c.679 4.296 6.122 5.764 8.868 2.391l54.742-67.233c.779-.957 1.882-1.594 3.1-1.79l85.596-13.792c4.294-.692 5.745-6.139 2.364-8.876l-183.354-148.37c-3.58-2.898-8.85.144-8.131 4.695z" />
  <path
     id="path960"
     fill="#01eca5"
     d="m148.43 133.069 36.815 232.975c.679 4.296 6.122 5.764 8.868 2.391l54.742-67.233c.779-.957 1.882-1.594 3.1-1.79l85.596-13.792c4.294-.692 5.745-6.139 2.364-8.876l-183.354-148.37c-3.58-2.898-8.85.144-8.131 4.695z" />
  <path
     id="path962"
     fill="#97ffd2"
     d="m301.775 291.386-49.82 8.03c-1.22.19-2.32.83-3.1 1.79l-29.9 36.73-18.54-117.29c-.72-4.56 4.55-7.6 8.13-4.7z" />
  <g
     id="g980"
     fill="#ff5ba8">
    <path
       id="path964"
       d="m78.258 86.948h-26.333c-2.761 0-5-2.239-5-5v-26.333c0-2.761 2.239-5 5-5h26.333c2.761 0 5 2.239 5 5v26.333c0 2.762-2.239 5-5 5z" />
    <path
       id="path966"
       d="m258.242 86.948h-26.333c-2.761 0-5-2.239-5-5v-26.333c0-2.761 2.239-5 5-5h26.333c2.761 0 5 2.239 5 5v26.333c0 2.762-2.239 5-5 5z" />
    <path
       id="path968"
       d="m438.226 86.948h-26.333c-2.761 0-5-2.239-5-5v-26.333c0-2.761 2.239-5 5-5h26.333c2.761 0 5 2.239 5 5v26.333c0 2.762-2.239 5-5 5z" />
    <path
       id="path970"
       d="m78.258 446.916h-26.333c-2.761 0-5-2.239-5-5v-26.333c0-2.761 2.239-5 5-5h26.333c2.761 0 5 2.239 5 5v26.333c0 2.762-2.239 5-5 5z" />
    <path
       id="path972"
       d="m258.242 446.916h-26.333c-2.761 0-5-2.239-5-5v-26.333c0-2.761 2.239-5 5-5h26.333c2.761 0 5 2.239 5 5v26.333c0 2.762-2.239 5-5 5z" />
    <path
       id="path974"
       d="m438.226 446.916h-26.333c-2.761 0-5-2.239-5-5v-26.333c0-2.761 2.239-5 5-5h26.333c2.761 0 5 2.239 5 5v26.333c0 2.762-2.239 5-5 5z" />
    <path
       id="path976"
       d="m406.893 261.932v-26.333c0-2.761 2.239-5 5-5h26.333c2.761 0 5 2.239 5 5v26.333c0 2.761-2.239 5-5 5h-26.333c-2.762 0-5-2.238-5-5z" />
    <path
       id="path978"
       d="m46.925 261.932v-26.333c0-2.761 2.239-5 5-5h26.333c2.761 0 5 2.239 5 5v26.333c0 2.761-2.239 5-5 5h-26.333c-2.762 0-5-2.238-5-5z" />
  </g>
  <path
     id="path982"
     fill="#2626bc"
     d="m272.825 228.886c2.147 1.737 5.295 1.405 7.032-.742 1.737-2.146 1.405-5.295-.741-7.032l-119.408-96.625c-3.255-2.634-7.701-2.981-11.324-.89-3.625 2.093-5.546 6.117-4.893 10.251l36.815 232.976c.627 3.963 3.423 7.074 7.298 8.118.89.24 1.786.357 2.669.357 2.957 0 5.767-1.313 7.717-3.708l13.869-17.033c1.744-2.142 1.422-5.291-.72-7.035-2.143-1.745-5.291-1.42-7.034.72l-13.922 17.019-36.843-232.972c.016-.021.069-.049.076-.031z" />
  <path
     id="path984"
     fill="#2626bc"
     d="m343.062 272.857-37.559-30.393c-2.146-1.737-5.295-1.405-7.032.742-1.737 2.146-1.405 5.295.741 7.032l37.546 30.445-85.596 13.792c-2.434.392-4.629 1.66-6.183 3.569l-19.573 24.039c-1.744 2.142-1.422 5.291.72 7.035.928.755 2.044 1.123 3.154 1.123 1.452 0 2.892-.629 3.88-1.843l19.592-24.049 85.597-13.792c3.961-.639 7.063-3.444 8.096-7.321 1.032-3.878-.264-7.855-3.383-10.379z" />
  <path
     id="path986"
     fill="#2626bc"
     d="m438.226 91.948c5.514 0 10-4.486 10-10v-26.333c0-5.514-4.486-10-10-10h-26.333c-5.514 0-10 4.486-10 10v8.167h-133.65v-8.167c0-5.514-4.486-10-10-10h-26.334c-5.514 0-10 4.486-10 10v8.167h-133.651v-8.167c0-5.514-4.486-10-10-10h-26.333c-5.514 0-10 4.486-10 10v26.333c0 5.514 4.486 10 10 10h8.167v133.651h-8.167c-5.514 0-10 4.486-10 10v26.333c0 5.514 4.486 10 10 10h8.167v133.651h-8.167c-5.514 0-10 4.486-10 10v26.333c0 5.514 4.486 10 10 10h26.333c5.514 0 10-4.486 10-10v-8.167h133.65v8.167c0 5.514 4.486 10 10 10h26.334c5.514 0 10-4.486 10-10v-8.167h133.65v8.167c0 5.514 4.486 10 10 10h26.333c5.514 0 10-4.486 10-10v-26.333c0-5.514-4.486-10-10-10h-8.166v-133.651h8.166c5.514 0 10-4.486 10-10v-26.333c0-5.514-4.486-10-10-10h-8.166v-133.651zm-26.333-36.333h26.333l.007 26.333h-26.34zm-179.985 0h26.334l.006 26.333h-26.34zm-179.983 0h26.333l.007 26.333h-26.34zm0 179.984h26.333v26.333l-26.333.006zm0 206.317v-26.333h26.333l.007 26.333zm179.983 0v-26.333h26.334l.006 26.333zm206.324 0h-26.34v-11.133c.278-.622.44-1.308.44-2.034s-.162-1.411-.44-2.034v-11.133h26.333zm-.006-179.984-26.333.006v-26.339h26.333zm-18.166-36.333h-8.167c-5.514 0-10 4.486-10 10v26.333c0 5.514 4.486 10 10 10h8.167v133.651h-8.167c-5.514 0-10 4.486-10 10v8.167h-133.65v-8.167c0-5.514-4.486-10-10-10h-26.334c-5.514 0-10 4.486-10 10v8.167h-133.651v-8.167c0-5.514-4.486-10-10-10h-8.166v-133.651h8.166c5.514 0 10-4.486 10-10v-26.333c0-5.514-4.486-10-10-10h-8.166v-133.651h8.166c5.514 0 10-4.486 10-10v-8.167h133.65v8.167c0 5.514 4.486 10 10 10h26.334c5.514 0 10-4.486 10-10v-8.167h133.65v8.167c0 5.514 4.486 10 10 10h8.167v133.651z" />
  <path
     id="path988"
     fill="#2626bc"
     d="m387.108 168.487h-11.52c-2.762 0-5-2.239-5-5s2.238-5 5-5h11.52c2.762 0 5 2.239 5 5s-2.238 5-5 5z" />
  <path
     id="path990"
     fill="#2626bc"
     d="m355.575 168.487h-56.52c-2.762 0-5-2.239-5-5s2.238-5 5-5h56.52c2.762 0 5 2.239 5 5s-2.238 5-5 5z" />
  <path
     id="path992"
     fill="#2626bc"
     d="m387.108 189.82h-88.053c-2.762 0-5-2.239-5-5s2.238-5 5-5h88.053c2.762 0 5 2.239 5 5s-2.238 5-5 5z" />
  <path
     id="path994"
     fill="#2626bc"
     d="m390.262 115.994c0-9.161-7.453-16.613-16.613-16.613s-16.613 7.453-16.613 16.613c0 4.518 1.818 8.615 4.755 11.613-2.936 2.998-4.755 7.095-4.755 11.613 0 2.761 2.238 5 5 5s5-2.239 5-5c0-3.646 2.967-6.613 6.613-6.613s6.613 2.967 6.613 6.613c0 2.761 2.238 5 5 5s5-2.239 5-5c0-4.518-1.818-8.615-4.755-11.613 2.936-2.997 4.755-7.095 4.755-11.613zm-16.614-6.613c3.646 0 6.613 2.967 6.613 6.613s-2.967 6.613-6.613 6.613-6.613-2.967-6.613-6.613 2.967-6.613 6.613-6.613z" />
  <path
     id="path996"
     fill="#ff7eb8"
     d="m349.556 363.853c-2.762 0-5-2.239-5-5 0-3.309-2.691-6-6-6-2.762 0-5-2.239-5-5s2.238-5 5-5c3.309 0 6-2.691 6-6 0-2.761 2.238-5 5-5s5 2.239 5 5c0 3.309 2.691 6 6 6 2.762 0 5 2.239 5 5s-2.238 5-5 5c-3.309 0-6 2.691-6 6 0 2.761-2.239 5-5 5z" />
  <path
     id="path998"
     fill="#ff7eb8"
     d="m305.056 488.698c-2.762 0-5-2.239-5-5 0-3.309-2.691-6-6-6-2.762 0-5-2.239-5-5s2.238-5 5-5c3.309 0 6-2.691 6-6 0-2.761 2.238-5 5-5s5 2.239 5 5c0 3.309 2.691 6 6 6 2.762 0 5 2.239 5 5s-2.238 5-5 5c-3.309 0-6 2.691-6 6 0 2.761-2.239 5-5 5z" />
  <path
     id="path1000"
     fill="#01eca5"
     d="m122.658 43.302c-1.279 0-2.56-.488-3.535-1.464-1.953-1.953-1.953-5.119 0-7.071l10-10c1.951-1.952 5.119-1.952 7.07 0 1.953 1.953 1.953 5.119 0 7.071l-10 10c-.975.975-2.255 1.464-3.535 1.464z" />
  <path
     id="path1002"
     fill="#01eca5"
     d="m455.075 317.487c-1.279 0-2.56-.488-3.535-1.464-1.953-1.953-1.953-5.119 0-7.071l10-10c1.951-1.952 5.119-1.952 7.07 0 1.953 1.953 1.953 5.119 0 7.071l-10 10c-.975.976-2.256 1.464-3.535 1.464z" />
  <path
     id="path1004"
     fill="#6583fe"
     d="m112.658 301.487c-1.279 0-2.56-.488-3.535-1.464-1.953-1.953-1.953-5.119 0-7.071l10-10c1.951-1.952 5.119-1.952 7.07 0 1.953 1.953 1.953 5.119 0 7.071l-10 10c-.975.976-2.255 1.464-3.535 1.464z" />
</svg>
