<?xml version="1.0" encoding="UTF-8" standalone="no"?>
<svg
   xmlns:dc="http://purl.org/dc/elements/1.1/"
   xmlns:cc="http://creativecommons.org/ns#"
   xmlns:rdf="http://www.w3.org/1999/02/22-rdf-syntax-ns#"
   xmlns:svg="http://www.w3.org/2000/svg"
   xmlns="http://www.w3.org/2000/svg"
   xmlns:sodipodi="http://sodipodi.sourceforge.net/DTD/sodipodi-0.dtd"
   xmlns:inkscape="http://www.inkscape.org/namespaces/inkscape"
   inkscape:version="1.0 (4035a4fb49, 2020-05-01)"
   sodipodi:docname="045-robot arm.svg"
   version="1.1"
   width="512"
   viewBox="0 0 512 512"
   height="512"
   enable-background="new 0 0 512 512"
   id="Capa_1">
  <metadata
     id="metadata296">
    <rdf:RDF>
      <cc:Work
         rdf:about="">
        <dc:format>image/svg+xml</dc:format>
        <dc:type
           rdf:resource="http://purl.org/dc/dcmitype/StillImage" />
      </cc:Work>
    </rdf:RDF>
  </metadata>
  <defs
     id="defs294" />
  <sodipodi:namedview
     inkscape:current-layer="Capa_1"
     inkscape:window-maximized="1"
     inkscape:window-y="-8"
     inkscape:window-x="-8"
     inkscape:cy="179.86617"
     inkscape:cx="256"
     inkscape:zoom="1.0507812"
     showgrid="false"
     id="namedview292"
     inkscape:window-height="705"
     inkscape:window-width="1366"
     inkscape:pageshadow="2"
     inkscape:pageopacity="0"
     guidetolerance="10"
     gridtolerance="10"
     objecttolerance="10"
     borderopacity="1"
     bordercolor="#666666"
     pagecolor="#ffffff" />
  <linearGradient
     y2="593.978"
     y1="-43.218"
     x2="-122.413"
     x1="514.782"
     gradientUnits="userSpaceOnUse"
     id="SVGID_1_">
    <stop
       id="stop154"
       stop-color="#ffc599"
       offset=".0023" />
    <stop
       id="stop156"
       stop-opacity="0"
       stop-color="#ffe8dc"
       offset=".992" />
  </linearGradient>
  <g
     transform="matrix(-1,0,0,1,512,0)"
     id="g289">
    <path
       style="fill:url(#SVGID_1_)"
       id="path159"
       fill="url(#SVGID_1_)"
       d="M 428.41,171.888 C 420.054,163.532 410.384,156.965 399.693,152.123 371.672,139.433 349.642,116.716 337.259,88.558 314.342,36.445 262.284,0.046 201.713,0 122.402,-0.06 56.551,63.163 53.566,142.418 c -1.277,33.922 8.857,65.421 26.87,90.969 22.877,32.448 28.821,73.782 17.021,111.69 -16.764,53.857 -10.919,104.898 20.973,136.791 55.888,55.888 170.586,31.804 256.185,-53.795 85.598,-85.599 109.683,-200.296 53.795,-256.185 z" />
    <g
       id="g287">
      <g
         id="g177"
         opacity="0.1">
        <path
           id="path161"
           fill="#0000cc"
           d="M 452,447.147 H 407.292 V 435.02 c 0,-24.677 -9.512,-47.128 -25.063,-63.901 l 41.44,-82.103 c 12.692,-25.145 2.596,-55.818 -22.549,-68.509 -8.685,-4.384 -18.028,-6.046 -27.063,-5.312 l -97.189,-82.936 11.907,-11.907 c 8.092,-8.091 8.092,-21.258 0,-29.349 -8.09,-8.092 -21.258,-8.092 -29.348,0 l -7.781,7.781 c -0.268,0.268 -0.492,0.563 -0.687,0.871 -0.913,-9.015 -4.805,-17.785 -11.712,-24.692 -15.923,-15.923 -41.74,-15.923 -57.664,0 -10.82,10.82 -14.279,26.206 -10.395,39.954 l -26.832,26.832 c -4.304,4.303 -4.304,11.281 0,15.585 l 1.225,1.225 -26.353,26.353 c -1.953,1.952 -1.953,5.118 0,7.07 0.976,0.977 2.256,1.465 3.535,1.465 1.279,0 2.56,-0.488 3.535,-1.465 l 26.353,-26.353 4.224,4.224 c 4.304,4.304 11.281,4.304 15.585,0 l 26.832,-26.832 c 6.526,1.844 13.417,2.028 20.018,0.559 l 14.777,17.317 -5.047,5.047 c -3.802,3.802 -5.896,8.856 -5.896,14.233 0,5.376 2.095,10.431 5.896,14.232 3.802,3.802 8.856,5.896 14.233,5.896 5.376,0 10.431,-2.094 14.232,-5.896 l 2.795,-2.795 61.75,72.361 -41.913,83.039 c -35.574,13.401 -60.883,47.745 -60.883,88.005 v 12.127 H 60 c -5.523,0 -10,4.477 -10,10 v 13.292 c 0,5.523 4.477,10 10,10 h 392 c 5.523,0 10,-4.477 10,-10 v -13.292 c 0,-5.522 -4.477,-9.999 -10,-9.999 z M 250.72,109.946 c 0.236,-1.555 0.381,-3.12 0.438,-4.689 0.151,0.206 0.302,0.412 0.489,0.598 1.951,1.953 5.119,1.953 7.07,0 l 7.781,-7.781 c 2.031,-2.03 4.731,-3.148 7.604,-3.148 2.873,0 5.572,1.118 7.604,3.148 4.192,4.193 4.192,11.015 0,15.208 l -12.467,12.467 z m -0.283,77.394 c -1.913,1.913 -4.457,2.966 -7.162,2.966 -2.706,0 -5.249,-1.053 -7.162,-2.966 -3.949,-3.949 -3.949,-10.376 0,-14.325 l 4.488,-4.488 13.191,15.458 z" />
        <g
           id="g175">
          <g
             id="g165">
            <path
               id="path163"
               fill="#0000cc"
               d="m 159.371,226.688 c -2.762,0 -5,-2.238 -5,-5 0,-3.309 -2.691,-6 -6,-6 -2.762,0 -5,-2.238 -5,-5 0,-2.762 2.238,-5 5,-5 3.309,0 6,-2.691 6,-6 0,-2.762 2.238,-5 5,-5 2.762,0 5,2.238 5,5 0,3.309 2.691,6 6,6 2.762,0 5,2.238 5,5 0,2.762 -2.238,5 -5,5 -3.309,0 -6,2.691 -6,6 0,2.762 -2.238,5 -5,5 z" />
          </g>
          <g
             id="g169">
            <path
               id="path167"
               fill="#0000cc"
               d="m 94.471,147.407 c -2.762,0 -5,-2.238 -5,-5 0,-3.309 -2.691,-6 -6,-6 -2.762,0 -5,-2.238 -5,-5 0,-2.762 2.238,-5 5,-5 3.309,0 6,-2.691 6,-6 0,-2.762 2.238,-5 5,-5 2.762,0 5,2.238 5,5 0,3.309 2.691,6 6,6 2.762,0 5,2.238 5,5 0,2.762 -2.238,5 -5,5 -3.309,0 -6,2.691 -6,6 0,2.761 -2.239,5 -5,5 z" />
          </g>
          <g
             id="g173">
            <path
               id="path171"
               fill="#0000cc"
               d="m 76.274,210.176 c -2.762,0 -5,-2.238 -5,-5 0,-3.309 -2.691,-6 -6,-6 -2.762,0 -5,-2.238 -5,-5 0,-2.762 2.238,-5 5,-5 3.309,0 6,-2.691 6,-6 0,-2.762 2.238,-5 5,-5 2.762,0 5,2.238 5,5 0,3.309 2.691,6 6,6 2.762,0 5,2.238 5,5 0,2.762 -2.238,5 -5,5 -3.309,0 -6,2.691 -6,6 0,2.762 -2.238,5 -5,5 z" />
          </g>
        </g>
      </g>
      <g
         id="g265">
        <g
           id="g211">
          <g
             id="g193"
             opacity="0.1">
            <g
               id="g191">
              <g
                 id="g181">
                <path
                   id="path179"
                   fill="#0000cc"
                   d="m 364.578,186.688 c -2.25,0 -4.294,-1.529 -4.853,-3.812 -1.83,-7.474 -5.68,-14.307 -11.133,-19.761 -5.453,-5.453 -12.286,-9.303 -19.761,-11.133 -2.682,-0.657 -4.324,-3.363 -3.667,-6.046 0.656,-2.682 3.361,-4.326 6.046,-3.667 9.25,2.266 17.706,7.028 24.452,13.775 6.747,6.746 11.511,15.202 13.775,24.452 0.657,2.683 -0.985,5.39 -3.667,6.046 -0.398,0.099 -0.798,0.146 -1.192,0.146 z" />
              </g>
              <g
                 id="g185">
                <path
                   id="path183"
                   fill="#0000cc"
                   d="m 343.168,188.241 c -2.25,0 -4.294,-1.529 -4.853,-3.812 -0.653,-2.67 -2.029,-5.11 -3.978,-7.06 -1.948,-1.948 -4.389,-3.323 -7.059,-3.977 -2.682,-0.656 -4.324,-3.363 -3.667,-6.046 0.656,-2.682 3.362,-4.325 6.046,-3.667 4.445,1.088 8.509,3.377 11.75,6.619 3.242,3.242 5.532,7.306 6.62,11.751 0.657,2.683 -0.985,5.39 -3.667,6.046 -0.398,0.099 -0.798,0.146 -1.192,0.146 z" />
              </g>
              <g
                 id="g189">
                <path
                   id="path187"
                   fill="#0000cc"
                   d="m 385.844,183.793 c -2.25,0 -4.294,-1.529 -4.853,-3.812 -2.919,-11.92 -9.058,-22.815 -17.753,-31.512 -8.695,-8.695 -19.592,-14.835 -31.512,-17.753 -2.682,-0.656 -4.324,-3.363 -3.667,-6.046 0.656,-2.682 3.362,-4.323 6.046,-3.667 13.696,3.354 26.215,10.405 36.204,20.396 9.988,9.988 17.041,22.508 20.395,36.203 0.657,2.683 -0.985,5.389 -3.667,6.046 -0.399,0.099 -0.799,0.145 -1.193,0.145 z" />
              </g>
            </g>
          </g>
          <g
             id="g209">
            <g
               id="g207">
              <g
                 id="g197">
                <path
                   id="path195"
                   fill="#0000cc"
                   d="m 364.578,129.688 c -2.25,0 -4.294,-1.529 -4.853,-3.812 -1.83,-7.475 -5.68,-14.308 -11.133,-19.761 -5.454,-5.453 -12.287,-9.303 -19.761,-11.133 -2.682,-0.657 -4.324,-3.363 -3.667,-6.046 0.656,-2.683 3.361,-4.326 6.046,-3.667 9.249,2.265 17.704,7.028 24.452,13.774 6.747,6.747 11.51,15.203 13.775,24.453 0.657,2.683 -0.985,5.39 -3.667,6.046 -0.398,0.099 -0.798,0.146 -1.192,0.146 z" />
              </g>
              <g
                 id="g201">
                <path
                   id="path199"
                   fill="#0000cc"
                   d="m 343.168,131.24 c -2.25,0 -4.294,-1.529 -4.853,-3.812 -0.653,-2.669 -2.029,-5.109 -3.978,-7.059 -1.948,-1.948 -4.389,-3.324 -7.059,-3.978 -2.682,-0.656 -4.324,-3.363 -3.667,-6.046 0.656,-2.682 3.362,-4.325 6.046,-3.667 4.445,1.088 8.509,3.378 11.751,6.62 3.242,3.242 5.53,7.306 6.619,11.75 0.657,2.683 -0.985,5.389 -3.667,6.046 -0.398,0.099 -0.798,0.146 -1.192,0.146 z" />
              </g>
              <g
                 id="g205">
                <path
                   id="path203"
                   fill="#0000cc"
                   d="m 385.844,126.794 c -2.25,0 -4.294,-1.529 -4.853,-3.813 -2.918,-11.917 -9.057,-22.813 -17.754,-31.512 -8.694,-8.694 -19.591,-14.834 -31.511,-17.753 -2.682,-0.657 -4.324,-3.363 -3.667,-6.046 0.656,-2.683 3.359,-4.326 6.046,-3.667 13.696,3.354 26.215,10.406 36.203,20.396 9.99,9.991 17.043,22.511 20.396,36.205 0.657,2.682 -0.985,5.389 -3.668,6.045 -0.398,0.098 -0.799,0.145 -1.192,0.145 z" />
              </g>
            </g>
          </g>
        </g>
        <path
           id="path213"
           fill="#8383ff"
           d="M 386.452,198.772 334.113,251.111 216.254,112.997 248.338,80.913 Z" />
        <g
           id="g217">
          <path
             id="path215"
             fill="#0000cc"
             d="m 300.853,217.132 c -1.412,0 -2.816,-0.596 -3.806,-1.754 l -80.695,-94.563 c -1.792,-2.101 -1.543,-5.257 0.558,-7.05 2.103,-1.789 5.256,-1.542 7.05,0.558 l 80.695,94.563 c 1.792,2.101 1.543,5.257 -0.558,7.05 -0.943,0.802 -2.096,1.196 -3.244,1.196 z" />
        </g>
        <path
           id="path219"
           fill="#ffab66"
           d="m 358.726,390.685 -91.058,-45.96 64.944,-128.669 c 12.692,-25.145 43.364,-35.241 68.509,-22.549 25.145,12.692 35.241,43.364 22.549,68.509 z" />
        <path
           id="path221"
           fill="#ff8b00"
           d="M 407.292,436.793 H 219.257 V 408.02 c 0,-51.925 42.093,-94.018 94.018,-94.018 51.925,0 94.018,42.093 94.018,94.018 v 28.773 z" />
        <path
           id="path223"
           fill="#ffab66"
           d="M 374.941,420.147 H 251.608 l 8.039,-31.466 c 0.566,-2.214 2.56,-3.762 4.844,-3.762 h 97.567 c 2.285,0 4.279,1.549 4.844,3.762 z" />
        <path
           id="path225"
           fill="#9494ff"
           d="M 452,453.439 H 60 c -5.523,0 -10,-4.477 -10,-10 v -13.292 c 0,-5.523 4.477,-10 10,-10 h 392 c 5.523,0 10,4.477 10,10 v 13.292 c 0,5.523 -4.477,10 -10,10 z" />
        <path
           id="path227"
           fill="#ff8b00"
           d="m 171.434,420.147 h 19 v 33.292 h -19 z" />
        <path
           id="path229"
           fill="#b3b3ff"
           d="M 145.983,420.147 H 60 c -5.523,0 -10,4.477 -10,10 v 13.292 c 0,5.523 4.477,10 10,10 h 85.983 z" />
        <circle
           id="circle231"
           r="13.932"
           fill="#ffc599"
           cy="349.241"
           cx="315.285" />
        <circle
           id="circle233"
           r="5.1669998"
           fill="#ff4d4d"
           cy="156.882"
           cx="301.12399" />
        <circle
           id="circle235"
           r="5.1669998"
           fill="#ffb3b3"
           cy="167.216"
           cx="311.45801" />
        <circle
           id="circle237"
           r="13.932"
           fill="#ffd6bb"
           cy="229.106"
           cx="380.97198" />
        <g
           id="g245">
          <path
             id="path239"
             fill="#6c6cff"
             d="m 156.877,142.853 -12.52,-12.52 c -4.304,-4.304 -4.304,-11.281 0,-15.585 l 41.097,-41.097 28.104,28.104 -41.097,41.097 c -4.302,4.305 -11.28,4.305 -15.584,0.001 z" />
          <circle
             id="circle241"
             r="40.773998"
             fill="#ffab66"
             cy="76.794998"
             cx="210.416" />
          <circle
             id="circle243"
             r="16.568001"
             fill="#ffd6bb"
             cy="76.794998"
             cx="210.416" />
        </g>
        <path
           id="path247"
           fill="#0000cc"
           d="m 452,415.146 h -39.708 v -7.126 c 0,-24.688 -9.083,-47.294 -24.082,-64.654 l 39.924,-79.098 c 6.739,-13.354 7.876,-28.532 3.199,-42.74 -4.677,-14.209 -14.606,-25.745 -27.96,-32.485 -8.687,-4.384 -18.147,-6.38 -27.609,-5.965 l -95.349,-81.366 5.36,-5.36 c 3.92,-3.92 6.079,-9.131 6.079,-14.674 0,-5.544 -2.159,-10.755 -6.078,-14.674 -3.92,-3.92 -9.131,-6.079 -14.675,-6.079 -5.544,0 -10.755,2.159 -14.674,6.079 l -1.089,1.088 c -1.667,-8.676 -5.852,-16.96 -12.556,-23.665 -17.848,-17.848 -46.887,-17.848 -64.734,0 -11.365,11.366 -15.48,27.268 -12.371,41.93 l -24.857,24.856 c -6.244,6.246 -6.244,16.409 0.001,22.656 l 2.724,2.724 -27.317,27.317 c -1.953,1.952 -1.953,5.118 0,7.07 0.976,0.977 2.256,1.465 3.535,1.465 1.279,0 2.56,-0.488 3.535,-1.465 l 27.317,-27.317 2.725,2.725 c 3.025,3.026 7.049,4.692 11.328,4.692 4.278,0 8.302,-1.666 11.327,-4.692 l 24.855,-24.855 c 3.15,0.668 6.356,1.015 9.563,1.015 11.722,0 23.443,-4.462 32.367,-13.386 5.012,-5.012 8.616,-10.907 10.813,-17.189 l 12.096,10.322 -39.649,39.649 c -7.849,7.848 -7.849,20.618 -0.001,28.466 3.802,3.802 8.856,5.896 14.233,5.896 5.376,0 10.431,-2.094 14.232,-5.895 l 5.693,-5.692 c 1.953,-1.953 1.953,-5.118 10e-4,-7.071 -1.953,-1.953 -5.118,-1.952 -7.071,-0.001 l -5.693,5.693 c -1.913,1.913 -4.457,2.966 -7.162,2.966 -2.706,0 -5.249,-1.053 -7.162,-2.966 -3.949,-3.949 -3.949,-10.376 0,-14.325 l 40.209,-40.209 89.5,76.375 c -0.731,0.209 -1.462,0.422 -2.189,0.662 -14.209,4.677 -25.745,14.606 -32.485,27.96 l -51.622,102.275 c -36.456,14.623 -62.269,50.323 -62.269,91.943 v 7.126 H 60 c -8.271,0 -15,6.729 -15,15 v 13.293 c 0,8.271 6.729,15 15,15 h 392 c 8.271,0 15,-6.729 15,-15 v -13.293 c 0,-8.272 -6.729,-15.001 -15,-15.001 z M 168.927,139.318 c -1.138,1.137 -2.649,1.763 -4.257,1.763 -1.608,0 -3.119,-0.626 -4.257,-1.764 l -12.52,-12.519 c -2.348,-2.348 -2.348,-6.167 -0.001,-8.515 L 169.295,96.88 c 2.163,4.437 5.072,8.6 8.753,12.281 3.681,3.681 7.844,6.591 12.281,8.753 z m 66.786,-37.227 c -13.949,13.949 -36.646,13.948 -50.593,0.001 -13.948,-13.949 -13.948,-36.645 -0.001,-50.593 6.976,-6.976 16.135,-10.461 25.297,-10.461 9.16,0 18.323,3.487 25.296,10.46 13.948,13.949 13.948,36.645 0.001,50.593 z m 20.662,-20.894 7.124,-7.123 c 2.03,-2.031 4.73,-3.149 7.603,-3.149 2.873,0 5.572,1.118 7.604,3.15 2.031,2.03 3.149,4.73 3.149,7.603 0,2.873 -1.118,5.572 -3.149,7.604 l -5.92,5.92 z m 80.7,137.112 c 5.536,-10.969 15.013,-19.126 26.684,-22.967 11.67,-3.842 24.138,-2.908 35.108,2.629 10.969,5.536 19.126,15.013 22.968,26.684 3.841,11.671 2.907,24.14 -2.629,35.108 l -38.344,75.967 c -17.708,-16.567 -41.482,-26.727 -67.588,-26.727 -8.055,0 -15.886,0.974 -23.388,2.798 z M 457,443.439 c 0,2.757 -2.243,5 -5,5 H 60 c -2.757,0 -5,-2.243 -5,-5 v -13.293 c 0,-2.757 2.243,-5 5,-5 h 159.257 c 2.762,0 5,-2.238 5,-5 V 408.02 c 0,-49.084 39.933,-89.018 89.018,-89.018 49.084,0 89.018,39.934 89.018,89.018 v 7.126 H 264.667 c -2.762,0 -5,2.238 -5,5 0,2.762 2.238,5 5,5 H 452 c 2.757,0 5,2.243 5,5 z" />
        <g
           id="g251">
          <path
             id="path249"
             fill="#ff9d33"
             d="m 284.823,148.767 -11.681,-11.681 c -1.953,-1.953 -1.952,-5.119 0,-7.071 1.952,-1.952 5.118,-1.953 7.071,0 l 11.681,11.681 c 1.953,1.953 1.952,5.119 0,7.071 -1.952,1.952 -5.118,1.953 -7.071,0 z" />
        </g>
        <g
           id="g255">
          <path
             id="path253"
             fill="#0000cc"
             d="m 159.371,202.688 c -2.762,0 -5,-2.238 -5,-5 0,-3.309 -2.691,-6 -6,-6 -2.762,0 -5,-2.238 -5,-5 0,-2.762 2.238,-5 5,-5 3.309,0 6,-2.691 6,-6 0,-2.762 2.238,-5 5,-5 2.762,0 5,2.238 5,5 0,3.309 2.691,6 6,6 2.762,0 5,2.238 5,5 0,2.762 -2.238,5 -5,5 -3.309,0 -6,2.691 -6,6 0,2.761 -2.238,5 -5,5 z" />
        </g>
        <g
           id="g259">
          <path
             id="path257"
             fill="#0000cc"
             d="m 94.471,123.406 c -2.762,0 -5,-2.238 -5,-5 0,-3.309 -2.691,-6 -6,-6 -2.762,0 -5,-2.238 -5,-5 0,-2.762 2.238,-5 5,-5 3.309,0 6,-2.691 6,-6 0,-2.762 2.238,-5 5,-5 2.762,0 5,2.238 5,5 0,3.309 2.691,6 6,6 2.762,0 5,2.238 5,5 0,2.762 -2.238,5 -5,5 -3.309,0 -6,2.691 -6,6 0,2.762 -2.239,5 -5,5 z" />
        </g>
        <g
           id="g263">
          <path
             id="path261"
             fill="#0000cc"
             d="m 76.274,186.176 c -2.762,0 -5,-2.238 -5,-5 0,-3.309 -2.691,-6 -6,-6 -2.762,0 -5,-2.238 -5,-5 0,-2.762 2.238,-5 5,-5 3.309,0 6,-2.691 6,-6 0,-2.762 2.238,-5 5,-5 2.762,0 5,2.238 5,5 0,3.309 2.691,6 6,6 2.762,0 5,2.238 5,5 0,2.762 -2.238,5 -5,5 -3.309,0 -6,2.691 -6,6 0,2.762 -2.238,5 -5,5 z" />
        </g>
      </g>
      <g
         id="g269">
        <path
           id="path267"
           fill="#ff9d33"
           d="m 220.483,310.63 c -1.279,0 -2.56,-0.488 -3.535,-1.465 l -11.292,-11.292 c -1.953,-1.952 -1.953,-5.118 -0.001,-7.07 l 11.292,-11.293 c 0.938,-0.938 2.21,-1.465 3.536,-1.465 1.326,0 2.598,0.526 3.536,1.465 l 11.292,11.293 c 1.952,1.952 1.952,5.118 -0.001,7.07 l -11.292,11.292 c -0.975,0.977 -2.255,1.465 -3.535,1.465 z m -4.22,-16.292 4.221,4.221 4.221,-4.221 -4.221,-4.222 z" />
      </g>
      <g
         id="g273">
        <path
           id="path271"
           fill="#6c6cff"
           d="m 169.642,353.463 c -1.279,0 -2.56,-0.488 -3.535,-1.465 l -11.292,-11.292 c -1.953,-1.952 -1.953,-5.118 -0.001,-7.07 l 11.292,-11.293 c 0.938,-0.938 2.21,-1.465 3.536,-1.465 1.326,0 2.598,0.526 3.535,1.465 l 11.293,11.293 c 0.938,0.938 1.465,2.209 1.465,3.535 0,1.326 -0.527,2.598 -1.465,3.536 l -11.293,11.292 c -0.976,0.976 -2.256,1.464 -3.535,1.464 z m -4.221,-16.292 4.221,4.221 4.222,-4.221 -4.222,-4.222 z" />
      </g>
      <g
         id="g277">
        <path
           id="path275"
           fill="#ff9d33"
           d="m 430.162,148.947 c -2.188,0 -4.352,-0.558 -6.315,-1.652 -3.036,-1.692 -5.231,-4.465 -6.181,-7.809 -0.95,-3.342 -0.542,-6.855 1.15,-9.892 1.691,-3.035 4.465,-5.231 7.808,-6.182 3.343,-0.951 6.856,-0.542 9.893,1.15 3.037,1.692 5.231,4.466 6.182,7.809 1.961,6.901 -2.059,14.111 -8.959,16.073 -1.181,0.337 -2.384,0.503 -3.578,0.503 z m 0.025,-16.031 c -0.276,0 -0.555,0.038 -0.828,0.116 -0.773,0.22 -1.415,0.729 -1.807,1.431 -0.393,0.703 -0.486,1.517 -0.267,2.29 0.22,0.774 0.728,1.416 1.431,1.808 0.702,0.392 1.515,0.486 2.289,0.266 1.598,-0.454 2.528,-2.123 2.074,-3.721 -0.22,-0.773 -0.729,-1.415 -1.431,-1.807 -0.455,-0.254 -0.956,-0.383 -1.461,-0.383 z" />
      </g>
      <g
         id="g281">
        <path
           id="path279"
           fill="#ff6c6c"
           d="m 446.527,357.985 c -7.175,0 -13.012,-5.837 -13.012,-13.012 0,-7.175 5.837,-13.012 13.012,-13.012 7.175,0 13.012,5.837 13.012,13.012 0,7.175 -5.837,13.012 -13.012,13.012 z m 0,-16.023 c -1.661,0 -3.012,1.351 -3.012,3.012 0,1.661 1.351,3.012 3.012,3.012 1.661,0 3.012,-1.351 3.012,-3.012 0,-1.661 -1.351,-3.012 -3.012,-3.012 z" />
      </g>
      <g
         id="g285">
        <path
           id="path283"
           fill="#ff6c6c"
           d="m 94.471,52.584 c -7.175,0 -13.012,-5.837 -13.012,-13.012 0,-7.175 5.837,-13.012 13.012,-13.012 7.175,0 13.012,5.837 13.012,13.012 0,7.175 -5.837,13.012 -13.012,13.012 z m 0,-16.023 c -1.661,0 -3.012,1.351 -3.012,3.012 0,1.661 1.351,3.012 3.012,3.012 1.661,0 3.012,-1.351 3.012,-3.012 0,-1.661 -1.351,-3.012 -3.012,-3.012 z" />
      </g>
    </g>
  </g>
</svg>
