<?xml version="1.0" encoding="UTF-8"?>
<svg xmlns="http://www.w3.org/2000/svg" xmlns:xlink="http://www.w3.org/1999/xlink" width="48pt" height="48pt" viewBox="0 0 48 48" version="1.1">
<g id="surface11729372">
<path style=" stroke:none;fill-rule:nonzero;fill:rgb(15.686275%,23.921569%,35.686275%);fill-opacity:1;" d="M 32.476562 21.695312 C 32.175781 21.019531 31.867188 20.335938 31.867188 19.574219 C 31.867188 18.9375 32.15625 18.414062 32.222656 17.804688 C 32.25 17.558594 32.242188 17.398438 31.976562 17.335938 C 31.714844 17.277344 31.472656 17.289062 31.21875 17.371094 C 30.722656 17.53125 30.148438 17.851562 29.8125 18.28125 C 29.792969 18.609375 29.429688 18.917969 29.089844 18.65625 C 27.898438 17.738281 26.128906 17.710938 24.695312 17.765625 C 23.34375 17.820312 21.898438 17.980469 20.617188 18.421875 C 20.539062 18.449219 20.457031 18.460938 20.390625 18.449219 C 20.277344 18.449219 20.15625 18.402344 20.054688 18.308594 C 19.695312 17.960938 19.332031 17.625 18.9375 17.324219 C 18.523438 17.015625 17.992188 16.59375 17.457031 16.566406 C 16.40625 16.507812 17.070312 18.421875 17.316406 19.273438 C 17.511719 19.40625 17.617188 19.667969 17.457031 19.921875 C 17.007812 20.597656 16.191406 21.121094 15.910156 21.910156 C 15.636719 22.679688 15.664062 23.476562 15.851562 24.261719 C 16.011719 24.976562 16.292969 25.613281 16.742188 26.195312 C 17.089844 26.644531 17.671875 27.375 18.328125 27.253906 C 18.46875 27.226562 18.589844 27.261719 18.683594 27.328125 C 19.882812 27.507812 20.867188 28.453125 21.148438 29.632812 C 21.46875 31.003906 20.691406 32.195312 19.386719 32.644531 C 18.019531 33.121094 16.753906 32.679688 16.105469 31.386719 C 15.890625 30.964844 15.769531 30.46875 15.496094 30.074219 C 15.320312 29.820312 15.09375 29.71875 14.832031 29.699219 C 15.039062 30.710938 14.925781 31.847656 15.710938 32.617188 C 16.601562 33.476562 17.820312 33.273438 18.945312 33.367188 C 19.789062 33.441406 20.410156 33.898438 20.242188 34.820312 C 20.136719 35.398438 19.902344 35.972656 19.707031 36.535156 C 19.507812 37.105469 19.472656 37.59375 19.460938 38.175781 C 19.601562 38.195312 19.753906 38.222656 19.894531 38.242188 C 22.648438 38.585938 25.445312 38.136719 27.992188 37.070312 C 27.9375 36.929688 27.9375 36.757812 28.058594 36.601562 C 28.226562 36.375 28.21875 35.992188 28.210938 35.726562 C 28.191406 35.277344 28.125 34.820312 28.011719 34.378906 C 27.835938 33.648438 27.628906 32.839844 27.207031 32.210938 C 26.710938 31.460938 25.996094 30.75 25.875 29.820312 C 25.773438 29.035156 26.195312 27.804688 27.101562 27.722656 C 27.214844 27.710938 27.320312 27.742188 27.394531 27.789062 C 28.273438 27.675781 29.175781 27.523438 30.007812 27.214844 C 30.804688 26.914062 31.453125 26.503906 32.042969 25.894531 C 32.550781 25.367188 32.972656 24.710938 33.019531 23.972656 C 33.066406 23.148438 32.804688 22.414062 32.476562 21.695312 Z M 32.476562 21.695312 "/>
<path style=" stroke:none;fill-rule:nonzero;fill:rgb(18.039216%,80%,44.313725%);fill-opacity:1;" d="M 38.054688 20.878906 C 37.023438 16.285156 33.273438 12.589844 28.828125 11.210938 C 26.726562 10.566406 24.488281 10.339844 22.320312 10.734375 C 20.398438 11.082031 18.65625 11.945312 17.035156 13.011719 C 15.300781 14.164062 13.648438 15.542969 12.414062 17.242188 C 11.539062 18.441406 10.847656 19.894531 10.894531 21.382812 C 10.894531 21.394531 10.882812 21.414062 10.882812 21.421875 C 10.855469 21.945312 10.800781 22.460938 10.753906 22.988281 C 10.707031 23.007812 10.667969 23.015625 10.621094 23.023438 C 10.566406 23.644531 10.472656 24.273438 10.453125 24.898438 C 10.433594 25.554688 10.433594 26.210938 10.472656 26.878906 C 10.539062 28.171875 10.707031 29.464844 11.054688 30.710938 C 11.578125 32.570312 12.460938 34.359375 13.894531 35.679688 C 15.195312 36.882812 16.808594 37.613281 18.507812 37.996094 L 18.507812 37.929688 C 18.507812 37.914062 18.507812 37.882812 18.507812 37.867188 C 18.515625 37.40625 18.554688 36.976562 18.710938 36.507812 C 18.898438 35.925781 19.164062 35.335938 19.273438 34.734375 C 19.332031 34.414062 19.332031 34.367188 19.011719 34.320312 C 18.535156 34.257812 18.039062 34.292969 17.550781 34.265625 C 16.976562 34.226562 16.386719 34.144531 15.871094 33.890625 C 15.347656 33.628906 15 33.273438 14.644531 32.8125 C 13.894531 31.835938 14.175781 30.5625 13.742188 29.476562 C 13.660156 29.257812 13.789062 28.929688 14.035156 28.875 C 14.980469 28.660156 15.871094 28.835938 16.351562 29.757812 C 16.714844 30.441406 16.914062 31.519531 17.71875 31.835938 C 18.75 32.242188 20.324219 31.425781 20.25 30.226562 C 20.183594 29.164062 19.367188 28.332031 18.320312 28.226562 C 18.273438 28.226562 18.234375 28.21875 18.195312 28.199219 C 17.410156 28.21875 16.714844 27.664062 16.21875 27.074219 C 15.65625 26.410156 15.226562 25.660156 15 24.816406 C 14.738281 23.820312 14.652344 22.820312 14.933594 21.824219 C 15.1875 20.933594 15.898438 20.382812 16.445312 19.695312 C 16.3125 18.84375 15.898438 18.039062 15.929688 17.15625 C 15.945312 16.480469 16.425781 15.703125 17.15625 15.636719 C 18.449219 15.523438 19.632812 16.59375 20.53125 17.476562 C 21.929688 17.042969 23.429688 16.867188 24.882812 16.828125 C 26.277344 16.789062 27.910156 16.867188 29.164062 17.578125 C 29.617188 17.0625 30.300781 16.6875 30.929688 16.480469 C 31.585938 16.265625 32.492188 16.285156 32.945312 16.882812 C 33.375 17.445312 33.101562 18.226562 32.914062 18.824219 C 32.644531 19.707031 32.953125 20.484375 33.320312 21.28125 C 33.703125 22.132812 34.039062 23.070312 33.945312 24.027344 C 33.851562 24.898438 33.476562 25.660156 32.90625 26.316406 C 32.257812 27.054688 31.492188 27.648438 30.5625 27.992188 C 29.511719 28.386719 28.425781 28.601562 27.320312 28.734375 C 27.234375 28.742188 27.160156 28.734375 27.09375 28.714844 C 27 28.828125 26.867188 29.082031 26.839844 29.175781 C 26.773438 29.363281 26.765625 29.558594 26.804688 29.757812 C 26.886719 30.1875 27.167969 30.582031 27.421875 30.929688 C 27.871094 31.546875 28.265625 32.136719 28.527344 32.867188 C 28.808594 33.65625 29.035156 34.5 29.109375 35.335938 C 29.148438 35.746094 29.15625 36.179688 29.054688 36.582031 C 30.523438 35.851562 31.882812 34.902344 33.085938 33.789062 C 36.582031 30.535156 39.148438 25.761719 38.054688 20.878906 Z M 38.054688 20.878906 "/>
<path style=" stroke:none;fill-rule:nonzero;fill:rgb(18.039216%,80%,44.313725%);fill-opacity:1;" d="M 44.738281 16.132812 C 42.742188 12.066406 38.960938 8.867188 34.96875 6.851562 C 30.964844 4.820312 26.324219 3.75 21.835938 4.460938 C 14.4375 5.625 7.273438 11.054688 5.15625 18.328125 C 5.15625 18.414062 5.136719 18.488281 5.089844 18.570312 C 5.054688 18.703125 5.015625 18.84375 4.988281 18.976562 C 4.941406 19.070312 4.894531 19.164062 4.855469 19.265625 C 4.847656 19.351562 4.828125 19.445312 4.820312 19.519531 C 4.734375 19.902344 4.632812 20.289062 4.566406 20.671875 C 4.433594 21.394531 4.460938 22.144531 4.210938 22.828125 C 4.191406 23.023438 4.164062 23.222656 4.132812 23.417969 C 4.132812 23.445312 4.132812 23.464844 4.132812 23.484375 C 4.085938 23.898438 4.050781 24.308594 4.011719 24.722656 C 3.9375 25.585938 3.898438 26.445312 3.910156 27.308594 C 3.9375 29.007812 4.132812 30.703125 4.554688 32.34375 C 5.371094 35.464844 6.945312 38.417969 9.429688 40.527344 C 11.136719 41.980469 13.132812 42.9375 15.28125 43.554688 C 17.625 44.242188 20.0625 44.625 22.507812 44.632812 C 27.335938 44.644531 32.183594 43.332031 36.160156 40.539062 C 43.507812 35.363281 49.050781 24.898438 44.738281 16.132812 Z M 23.277344 39.214844 C 18.945312 39.609375 14.195312 38.351562 11.726562 34.519531 C 10.660156 32.859375 10.039062 30.945312 9.75 29.007812 C 9.601562 27.992188 9.515625 26.972656 9.515625 25.949219 C 9.515625 25.414062 9.523438 24.882812 9.554688 24.347656 C 9.589844 23.757812 9.703125 23.175781 9.722656 22.59375 C 9.730469 22.367188 9.871094 22.210938 10.050781 22.144531 C 9.722656 20.15625 10.527344 18.214844 11.71875 16.613281 C 13.125 14.710938 15.019531 13.144531 17.023438 11.90625 C 18.683594 10.882812 20.445312 10.078125 22.386719 9.769531 C 24.542969 9.421875 26.804688 9.601562 28.894531 10.246094 C 33.261719 11.605469 37.152344 14.898438 38.605469 19.332031 C 41.757812 28.929688 32.457031 38.382812 23.277344 39.214844 Z M 23.277344 39.214844 "/>
<path style=" stroke:none;fill-rule:nonzero;fill:rgb(0%,0%,0%);fill-opacity:1;" d="M 21.375 3.589844 C 20.570312 3.730469 19.773438 3.917969 18.984375 4.144531 L 30.628906 4.144531 C 27.617188 3.308594 24.449219 3.054688 21.375 3.589844 Z M 21.375 3.589844 "/>
<path style=" stroke:none;fill-rule:nonzero;fill:rgb(0%,0%,0%);fill-opacity:1;" d="M 44.710938 14.175781 C 42.347656 10.386719 38.53125 7.460938 34.519531 5.585938 C 33.261719 5.007812 31.960938 4.519531 30.617188 4.144531 L 18.984375 4.144531 C 12.226562 6.121094 6.148438 11.382812 4.226562 18.179688 C 3.917969 18.695312 3.871094 19.40625 3.742188 19.976562 C 3.648438 20.382812 3.582031 20.792969 3.523438 21.207031 C 3.515625 21.242188 3.515625 21.289062 3.507812 21.328125 C 3.496094 21.355469 3.488281 21.375 3.488281 21.402344 C 3.414062 21.796875 3.347656 22.191406 3.289062 22.585938 C 3.289062 22.59375 3.28125 22.59375 3.28125 22.601562 C 3.234375 22.714844 3.226562 22.820312 3.242188 22.902344 C 3.148438 23.664062 3.085938 24.421875 3.027344 25.179688 C 2.953125 26.25 2.945312 27.328125 3 28.398438 C 3.121094 30.488281 3.523438 32.570312 4.246094 34.539062 C 5.679688 38.457031 8.511719 41.710938 12.320312 43.472656 C 14.484375 44.464844 16.894531 45.039062 19.246094 45.347656 C 21.636719 45.65625 24.074219 45.636719 26.464844 45.289062 C 31.238281 44.597656 35.699219 42.507812 39.226562 39.214844 C 42.636719 36.039062 45.320312 31.941406 46.546875 27.421875 C 47.785156 22.929688 47.195312 18.148438 44.710938 14.175781 Z M 36.148438 40.546875 C 32.175781 43.339844 27.328125 44.652344 22.5 44.644531 C 20.0625 44.632812 17.625 44.25 15.28125 43.566406 C 13.132812 42.9375 11.136719 41.992188 9.429688 40.539062 C 6.945312 38.429688 5.371094 35.476562 4.554688 32.351562 C 4.125 30.710938 3.9375 29.015625 3.910156 27.320312 C 3.890625 26.457031 3.929688 25.59375 4.011719 24.730469 C 4.050781 24.320312 4.085938 23.90625 4.132812 23.492188 C 4.132812 23.476562 4.132812 23.445312 4.132812 23.429688 C 4.164062 23.230469 4.191406 23.035156 4.210938 22.835938 C 4.460938 22.152344 4.433594 21.394531 4.566406 20.679688 C 4.640625 20.296875 4.734375 19.914062 4.820312 19.527344 C 4.835938 19.453125 4.847656 19.367188 4.855469 19.273438 C 4.894531 19.179688 4.941406 19.078125 4.988281 18.984375 C 5.023438 18.851562 5.054688 18.710938 5.089844 18.582031 C 5.136719 18.496094 5.164062 18.414062 5.15625 18.335938 C 7.273438 11.054688 14.4375 5.625 21.835938 4.460938 C 26.324219 3.75 30.957031 4.820312 34.96875 6.851562 C 38.960938 8.867188 42.730469 12.074219 44.738281 16.132812 C 49.050781 24.898438 43.507812 35.363281 36.148438 40.546875 Z M 36.148438 40.546875 "/>
<path style=" stroke:none;fill-rule:nonzero;fill:rgb(0.392157%,0.392157%,0.392157%);fill-opacity:1;" d="M 38.597656 19.339844 C 37.132812 14.90625 33.253906 11.617188 28.882812 10.257812 C 26.792969 9.609375 24.542969 9.429688 22.378906 9.777344 C 20.4375 10.085938 18.675781 10.882812 17.015625 11.914062 C 15.007812 13.152344 13.125 14.726562 11.710938 16.621094 C 10.519531 18.226562 9.710938 20.164062 10.039062 22.152344 C 9.871094 22.21875 9.722656 22.367188 9.710938 22.601562 C 9.695312 23.183594 9.570312 23.773438 9.542969 24.355469 C 9.515625 24.890625 9.507812 25.425781 9.507812 25.960938 C 9.515625 26.980469 9.589844 28.003906 9.742188 29.015625 C 10.03125 30.957031 10.648438 32.867188 11.71875 34.527344 C 14.183594 38.351562 18.9375 39.609375 23.269531 39.226562 C 32.457031 38.382812 41.757812 28.929688 38.597656 19.339844 Z M 28.050781 36.589844 C 27.929688 36.75 27.929688 36.917969 27.984375 37.058594 C 25.433594 38.128906 22.640625 38.578125 19.882812 38.230469 C 19.742188 38.210938 19.59375 38.195312 19.453125 38.164062 C 19.460938 37.585938 19.5 37.097656 19.695312 36.523438 C 19.882812 35.960938 20.117188 35.390625 20.230469 34.808594 C 20.398438 33.890625 19.773438 33.429688 18.9375 33.355469 C 17.804688 33.261719 16.59375 33.460938 15.703125 32.605469 C 14.90625 31.847656 15.027344 30.703125 14.820312 29.691406 C 15.085938 29.699219 15.308594 29.804688 15.488281 30.066406 C 15.757812 30.460938 15.890625 30.945312 16.097656 31.378906 C 16.742188 32.679688 18.007812 33.113281 19.378906 32.632812 C 20.671875 32.183594 21.460938 30.992188 21.140625 29.625 C 20.859375 28.445312 19.875 27.496094 18.675781 27.320312 C 18.582031 27.253906 18.46875 27.214844 18.320312 27.242188 C 17.664062 27.367188 17.089844 26.632812 16.734375 26.183594 C 16.285156 25.601562 16.011719 24.964844 15.84375 24.253906 C 15.664062 23.464844 15.628906 22.667969 15.898438 21.898438 C 16.179688 21.113281 16.996094 20.597656 17.445312 19.914062 C 17.617188 19.660156 17.503906 19.398438 17.304688 19.265625 C 17.0625 18.402344 16.398438 16.5 17.445312 16.554688 C 17.992188 16.585938 18.523438 17.007812 18.929688 17.316406 C 19.320312 17.617188 19.695312 17.953125 20.042969 18.300781 C 20.148438 18.402344 20.257812 18.441406 20.382812 18.441406 C 20.457031 18.449219 20.53125 18.441406 20.605469 18.414062 C 21.890625 17.972656 23.335938 17.804688 24.683594 17.757812 C 26.117188 17.699219 27.890625 17.726562 29.082031 18.648438 C 29.417969 18.910156 29.785156 18.601562 29.804688 18.273438 C 30.140625 17.839844 30.703125 17.523438 31.210938 17.363281 C 31.472656 17.277344 31.707031 17.269531 31.96875 17.324219 C 32.242188 17.382812 32.242188 17.550781 32.210938 17.792969 C 32.148438 18.402344 31.855469 18.929688 31.855469 19.566406 C 31.855469 20.316406 32.15625 21.007812 32.464844 21.683594 C 32.792969 22.40625 33.054688 23.148438 33 23.945312 C 32.953125 24.695312 32.53125 25.339844 32.023438 25.867188 C 31.433594 26.476562 30.789062 26.898438 29.992188 27.1875 C 29.15625 27.496094 28.257812 27.65625 27.375 27.757812 C 27.300781 27.710938 27.207031 27.683594 27.085938 27.695312 C 26.175781 27.777344 25.753906 29.007812 25.855469 29.792969 C 25.976562 30.722656 26.691406 31.433594 27.1875 32.183594 C 27.609375 32.8125 27.816406 33.617188 27.992188 34.351562 C 28.097656 34.789062 28.164062 35.242188 28.191406 35.699219 C 28.21875 35.980469 28.226562 36.367188 28.050781 36.589844 Z M 33.09375 33.777344 C 31.894531 34.894531 30.523438 35.839844 29.0625 36.570312 C 29.164062 36.167969 29.15625 35.738281 29.117188 35.324219 C 29.042969 34.492188 28.820312 33.648438 28.539062 32.859375 C 28.273438 32.128906 27.882812 31.546875 27.429688 30.917969 C 27.179688 30.5625 26.898438 30.179688 26.8125 29.746094 C 26.773438 29.550781 26.785156 29.351562 26.851562 29.164062 C 26.878906 29.070312 27.007812 28.820312 27.101562 28.707031 C 27.167969 28.726562 27.242188 28.742188 27.328125 28.726562 C 28.433594 28.59375 29.523438 28.378906 30.570312 27.984375 C 31.5 27.636719 32.257812 27.046875 32.914062 26.304688 C 33.488281 25.648438 33.871094 24.890625 33.957031 24.019531 C 34.050781 23.0625 33.710938 22.125 33.328125 21.273438 C 32.972656 20.464844 32.652344 19.695312 32.925781 18.816406 C 33.113281 18.214844 33.382812 17.4375 32.953125 16.875 C 32.503906 16.273438 31.59375 16.257812 30.9375 16.472656 C 30.308594 16.679688 29.625 17.054688 29.175781 17.570312 C 27.917969 16.847656 26.289062 16.78125 24.890625 16.820312 C 23.4375 16.855469 21.9375 17.023438 20.539062 17.464844 C 19.640625 16.585938 18.460938 15.515625 17.164062 15.628906 C 16.433594 15.695312 15.957031 16.480469 15.9375 17.148438 C 15.910156 18.019531 16.320312 18.835938 16.453125 19.6875 C 15.910156 20.371094 15.195312 20.933594 14.945312 21.816406 C 14.664062 22.808594 14.746094 23.8125 15.007812 24.804688 C 15.234375 25.648438 15.664062 26.398438 16.226562 27.066406 C 16.726562 27.65625 17.417969 28.210938 18.207031 28.191406 C 18.242188 28.199219 18.28125 28.210938 18.328125 28.21875 C 19.378906 28.320312 20.195312 29.148438 20.257812 30.214844 C 20.335938 31.40625 18.75 32.222656 17.726562 31.828125 C 16.921875 31.507812 16.714844 30.441406 16.359375 29.746094 C 15.882812 28.828125 14.992188 28.648438 14.042969 28.867188 C 13.800781 28.921875 13.667969 29.242188 13.753906 29.464844 C 14.183594 30.554688 13.894531 31.828125 14.652344 32.804688 C 15.007812 33.261719 15.355469 33.617188 15.882812 33.882812 C 16.398438 34.132812 16.988281 34.21875 17.558594 34.257812 C 18.046875 34.285156 18.535156 34.246094 19.023438 34.3125 C 19.339844 34.359375 19.339844 34.40625 19.285156 34.726562 C 19.171875 35.324219 18.910156 35.914062 18.722656 36.496094 C 18.570312 36.964844 18.523438 37.398438 18.515625 37.855469 C 18.515625 37.875 18.515625 37.902344 18.515625 37.921875 L 18.515625 37.988281 C 16.808594 37.601562 15.207031 36.871094 13.902344 35.671875 C 12.46875 34.351562 11.578125 32.558594 11.0625 30.703125 C 10.714844 29.457031 10.546875 28.164062 10.480469 26.867188 C 10.445312 26.210938 10.445312 25.554688 10.460938 24.890625 C 10.480469 24.261719 10.574219 23.644531 10.632812 23.015625 C 10.679688 23.007812 10.726562 22.996094 10.761719 22.976562 C 10.808594 22.453125 10.867188 21.9375 10.894531 21.414062 C 10.894531 21.402344 10.894531 21.382812 10.902344 21.375 C 10.855469 19.882812 11.550781 18.441406 12.421875 17.230469 C 13.648438 15.535156 15.300781 14.15625 17.042969 13.003906 C 18.65625 11.933594 20.410156 11.070312 22.332031 10.726562 C 24.507812 10.332031 26.738281 10.554688 28.835938 11.203125 C 33.28125 12.582031 37.03125 16.273438 38.0625 20.867188 C 39.148438 25.761719 36.582031 30.535156 33.09375 33.777344 Z M 33.09375 33.777344 "/>
</g>
</svg>
