<?xml version="1.0" encoding="UTF-8"?>
<svg xmlns="http://www.w3.org/2000/svg" xmlns:xlink="http://www.w3.org/1999/xlink" width="48pt" height="48pt" viewBox="0 0 48 48" version="1.1">
<g id="surface11729338">
<path style=" stroke:none;fill-rule:nonzero;fill:rgb(18.039216%,80%,44.313725%);fill-opacity:1;" d="M 11.734375 3.5625 C 14.9375 3.410156 19.824219 2.851562 24.984375 3.148438 C 27.90625 3.320312 35.585938 2.804688 35.585938 2.804688 C 40.488281 2.804688 44.347656 6.703125 44.957031 11.566406 C 45.167969 13.226562 45.753906 16.730469 45.558594 18.28125 C 45.148438 21.59375 45.785156 26.582031 45.644531 27.949219 C 45.007812 34.160156 45.316406 34.421875 45.558594 36.558594 C 46.113281 41.429688 41.582031 45.675781 36.6875 45.433594 C 32.421875 45.222656 27.0625 45.078125 22.78125 45.460938 C 19.558594 45.746094 14.03125 45.300781 12.148438 45.433594 C 7.261719 45.777344 3.308594 42.796875 3.273438 36.558594 C 3.265625 34.890625 2.667969 32.859375 2.730469 29.898438 C 2.800781 26.304688 3.242188 23.113281 3.273438 21.5 C 3.324219 19.132812 3.28125 14.390625 3.273438 12.023438 C 3.257812 7.121094 5.070312 3.878906 11.734375 3.5625 Z M 11.734375 3.5625 "/>
<path style=" stroke:none;fill-rule:nonzero;fill:rgb(0.392157%,0.392157%,0.392157%);fill-opacity:1;" d="M 19.984375 46.058594 C 18.648438 46.058594 17.226562 46.015625 15.898438 45.972656 C 14.308594 45.925781 12.933594 45.882812 12.183594 45.933594 C 9.566406 46.121094 7.207031 45.367188 5.542969 43.824219 C 3.75 42.160156 2.792969 39.648438 2.773438 36.5625 C 2.773438 35.914062 2.671875 35.199219 2.558594 34.367188 C 2.386719 33.109375 2.191406 31.683594 2.230469 29.890625 C 2.273438 27.71875 2.449219 25.703125 2.589844 24.082031 C 2.683594 23.027344 2.761719 22.121094 2.773438 21.488281 C 2.8125 19.613281 2.796875 16.226562 2.78125 13.753906 L 2.773438 12.023438 C 2.753906 6.121094 5.511719 3.355469 11.710938 3.0625 C 12.5 3.023438 13.390625 2.960938 14.363281 2.894531 C 17.363281 2.683594 21.101562 2.425781 25.015625 2.648438 C 27.871094 2.8125 35.476562 2.3125 35.554688 2.308594 C 35.554688 2.308594 35.554688 2.308594 35.558594 2.308594 C 40.554688 2.308594 44.796875 6.261719 45.453125 11.503906 C 45.496094 11.820312 45.546875 12.199219 45.605469 12.621094 C 45.867188 14.480469 46.222656 17.019531 46.058594 18.34375 C 45.804688 20.363281 45.960938 23.117188 46.070312 25.125 C 46.144531 26.421875 46.199219 27.445312 46.144531 28 C 45.609375 33.1875 45.742188 34.148438 45.941406 35.601562 C 45.980469 35.878906 46.019531 36.167969 46.058594 36.503906 C 46.320312 38.8125 45.496094 41.175781 43.796875 42.988281 C 41.945312 44.960938 39.277344 46.058594 36.660156 45.933594 C 30.808594 45.644531 26.28125 45.652344 22.828125 45.960938 C 21.988281 46.035156 21.011719 46.058594 19.984375 46.058594 Z M 13.09375 44.910156 C 13.867188 44.910156 14.851562 44.941406 15.929688 44.972656 C 18.246094 45.046875 20.871094 45.128906 22.734375 44.964844 C 26.238281 44.652344 30.808594 44.640625 36.710938 44.933594 C 39.039062 45.058594 41.410156 44.066406 43.066406 42.304688 C 44.585938 40.679688 45.296875 38.660156 45.0625 36.617188 C 45.023438 36.289062 44.984375 36.007812 44.949219 35.738281 C 44.738281 34.214844 44.601562 33.203125 45.148438 27.898438 C 45.195312 27.425781 45.140625 26.386719 45.070312 25.179688 C 44.949219 23.019531 44.800781 20.332031 45.0625 18.21875 C 45.210938 17.027344 44.855469 14.460938 44.617188 12.761719 C 44.554688 12.335938 44.503906 11.949219 44.460938 11.628906 C 43.863281 6.882812 40.050781 3.304688 35.585938 3.304688 C 35.304688 3.324219 27.875 3.820312 24.957031 3.648438 C 21.101562 3.425781 17.402344 3.683594 14.429688 3.890625 C 13.449219 3.960938 12.550781 4.023438 11.757812 4.0625 C 6.070312 4.332031 3.757812 6.640625 3.773438 12.023438 L 3.78125 13.746094 C 3.796875 16.226562 3.8125 19.625 3.773438 21.511719 C 3.761719 22.175781 3.679688 23.097656 3.585938 24.167969 C 3.445312 25.773438 3.273438 27.773438 3.230469 29.910156 C 3.195312 31.625 3.382812 33.011719 3.550781 34.234375 C 3.667969 35.097656 3.769531 35.84375 3.773438 36.558594 C 3.789062 39.359375 4.636719 41.617188 6.222656 43.089844 C 7.703125 44.464844 9.742188 45.105469 12.113281 44.9375 C 12.378906 44.917969 12.710938 44.910156 13.09375 44.910156 Z M 13.09375 44.910156 "/>
<path style=" stroke:none;fill-rule:nonzero;fill:rgb(15.686275%,23.921569%,35.686275%);fill-opacity:1;" d="M 16.351562 13.753906 C 16.113281 16.476562 14.410156 16.585938 13.246094 16.527344 C 12.078125 16.46875 9.90625 15.664062 10.054688 13.519531 C 10.199219 11.375 13.382812 10.480469 13.382812 10.480469 C 13.382812 10.480469 16.570312 11.195312 16.351562 13.753906 Z M 16.351562 13.753906 "/>
<path style=" stroke:none;fill-rule:nonzero;fill:rgb(0.392157%,0.392157%,0.392157%);fill-opacity:1;" d="M 15.808594 11.125 C 15.183594 10.53125 14.457031 10.160156 13.597656 10.011719 C 12.527344 9.828125 11.980469 10.285156 11.195312 10.949219 C 9.734375 12.179688 8.984375 14.082031 10.210938 15.796875 C 11.4375 17.511719 14.773438 17.585938 16.132812 16.050781 C 16.832031 15.265625 17.003906 14.296875 16.917969 13.269531 C 16.816406 12.046875 16.269531 11.34375 15.382812 10.558594 C 14.902344 10.132812 14.191406 10.835938 14.675781 11.265625 C 15.332031 11.847656 15.734375 12.21875 15.894531 13.148438 C 16.035156 13.984375 15.910156 14.847656 15.308594 15.476562 C 14.664062 16.148438 13.59375 16.070312 12.714844 16.023438 C 11.722656 15.972656 11.015625 15.464844 10.703125 14.519531 C 10.28125 13.234375 11.167969 12.371094 12.050781 11.605469 C 12.632812 11.101562 13.179688 10.824219 13.976562 11.109375 C 14.289062 11.21875 14.835938 11.578125 15.101562 11.832031 C 15.566406 12.277344 16.273438 11.570312 15.808594 11.125 Z M 15.808594 11.125 "/>
<path style=" stroke:none;fill-rule:nonzero;fill:rgb(15.686275%,23.921569%,35.686275%);fill-opacity:1;" d="M 10.414062 20.496094 L 11.265625 40.019531 L 16.882812 40.117188 L 16.304688 20.710938 Z M 10.414062 20.496094 "/>
<path style=" stroke:none;fill-rule:nonzero;fill:rgb(0.392157%,0.392157%,0.392157%);fill-opacity:1;" d="M 9.914062 20.496094 C 10.632812 26.941406 10.695312 33.339844 10.695312 39.808594 C 10.695312 40.449219 11.695312 40.453125 11.695312 39.808594 C 11.695312 33.339844 11.632812 26.941406 10.914062 20.496094 C 10.84375 19.863281 9.84375 19.855469 9.914062 20.496094 Z M 9.914062 20.496094 "/>
<path style=" stroke:none;fill-rule:nonzero;fill:rgb(0.392157%,0.392157%,0.392157%);fill-opacity:1;" d="M 16.789062 20.84375 C 16.804688 20.796875 16.816406 20.753906 16.832031 20.710938 C 16.945312 20.378906 16.652344 20.105469 16.351562 20.078125 C 14.378906 19.90625 12.394531 19.925781 10.414062 19.925781 C 9.769531 19.925781 9.769531 20.925781 10.414062 20.925781 C 12.394531 20.925781 14.378906 20.90625 16.351562 21.078125 C 16.1875 20.867188 16.027344 20.65625 15.867188 20.445312 C 15.851562 20.488281 15.839844 20.53125 15.824219 20.574219 C 15.617188 21.1875 16.582031 21.449219 16.789062 20.84375 Z M 16.789062 20.84375 "/>
<path style=" stroke:none;fill-rule:nonzero;fill:rgb(0.392157%,0.392157%,0.392157%);fill-opacity:1;" d="M 16.03125 21.121094 C 15.648438 21.042969 15.882812 24.894531 15.890625 25.175781 C 15.949219 26.921875 15.910156 28.675781 16.035156 30.421875 C 16.25 33.488281 16.386719 36.65625 16.375 39.734375 C 16.371094 40.378906 17.371094 40.378906 17.375 39.734375 C 17.402344 33.382812 16.828125 27.007812 16.722656 20.648438 C 16.71875 20.441406 16.570312 20.210938 16.355469 20.167969 C 16.335938 20.164062 16.316406 20.160156 16.296875 20.15625 C 15.667969 20.027344 15.398438 20.992188 16.03125 21.121094 Z M 16.03125 21.121094 "/>
<path style=" stroke:none;fill-rule:nonzero;fill:rgb(0.392157%,0.392157%,0.392157%);fill-opacity:1;" d="M 11.265625 39.519531 C 11.25 39.519531 11.234375 39.519531 11.21875 39.519531 C 11.21875 39.851562 11.21875 40.1875 11.21875 40.519531 C 12.46875 40.519531 13.714844 40.507812 14.960938 40.585938 C 15.578125 40.621094 16.425781 40.820312 17.015625 40.601562 C 16.828125 40.355469 16.640625 40.109375 16.449219 39.863281 C 16.425781 39.902344 16.398438 39.941406 16.371094 39.980469 C 16 40.507812 16.863281 41.007812 17.234375 40.484375 C 17.261719 40.445312 17.285156 40.40625 17.3125 40.371094 C 17.558594 40.023438 17.148438 39.488281 16.75 39.636719 C 16.148438 39.859375 15.195312 39.546875 14.566406 39.519531 C 13.453125 39.46875 12.328125 39.519531 11.214844 39.519531 C 10.574219 39.519531 10.570312 40.519531 11.214844 40.519531 C 11.230469 40.519531 11.246094 40.519531 11.261719 40.519531 C 11.910156 40.519531 11.910156 39.519531 11.265625 39.519531 Z M 11.265625 39.519531 "/>
<path style=" stroke:none;fill-rule:nonzero;fill:rgb(15.686275%,23.921569%,35.686275%);fill-opacity:1;" d="M 19.855469 20.425781 L 20.425781 34.304688 L 20.363281 40.296875 L 25.285156 40.605469 C 25.285156 40.605469 25.253906 36.683594 25.285156 36.328125 C 25.320312 35.972656 24.550781 30.109375 25.097656 29.578125 C 25.640625 29.050781 27.625 26.53125 27.914062 26.636719 C 28.203125 26.746094 30.894531 25.863281 30.894531 25.863281 C 30.894531 25.863281 32.636719 26.492188 32.699219 26.546875 C 32.765625 26.597656 33.996094 28.351562 33.996094 28.351562 L 34.339844 31.609375 L 34.457031 39.132812 L 35.191406 40.007812 L 38.792969 40.140625 L 39.09375 32.710938 L 38.699219 28.582031 L 37.238281 22.554688 L 33.449219 20.355469 L 27.878906 21.277344 L 25.738281 22.777344 L 25.082031 20.363281 Z M 19.855469 20.425781 "/>
<path style=" stroke:none;fill-rule:nonzero;fill:rgb(0.392157%,0.392157%,0.392157%);fill-opacity:1;" d="M 19.375 20.558594 C 20.066406 23.386719 19.726562 26.824219 19.78125 29.726562 C 19.851562 33.199219 19.597656 36.851562 19.863281 40.296875 C 19.890625 40.648438 20.277344 40.957031 20.617188 40.730469 C 20.683594 40.683594 20.75 40.636719 20.816406 40.59375 C 21.347656 40.234375 20.847656 39.367188 20.3125 39.730469 C 20.246094 39.773438 20.179688 39.820312 20.109375 39.867188 C 20.363281 40.011719 20.613281 40.152344 20.863281 40.296875 C 20.574219 36.59375 20.796875 32.644531 20.78125 28.910156 C 20.769531 26.171875 20.988281 22.957031 20.335938 20.292969 C 20.183594 19.667969 19.222656 19.933594 19.375 20.558594 Z M 19.375 20.558594 "/>
<path style=" stroke:none;fill-rule:nonzero;fill:rgb(0.392157%,0.392157%,0.392157%);fill-opacity:1;" d="M 19.644531 19.644531 C 19.628906 19.664062 19.613281 19.683594 19.601562 19.699219 C 19.445312 19.902344 19.378906 20.214844 19.601562 20.40625 C 20.027344 20.78125 20.695312 20.660156 21.226562 20.695312 C 22.464844 20.777344 23.710938 20.675781 24.949219 20.84375 C 24.832031 20.640625 24.714844 20.433594 24.601562 20.230469 C 24.410156 21.230469 24.625 22.109375 25.253906 22.90625 C 25.648438 23.414062 26.351562 22.703125 25.960938 22.199219 C 25.578125 21.714844 25.449219 21.097656 25.5625 20.496094 C 25.609375 20.257812 25.5 19.921875 25.214844 19.882812 C 24.257812 19.75 23.289062 19.710938 22.320312 19.710938 C 21.878906 19.710938 21.441406 19.664062 21.003906 19.644531 C 20.890625 19.640625 20.339844 19.730469 20.308594 19.699219 C 20.308594 19.9375 20.308594 20.171875 20.308594 20.40625 C 20.320312 20.390625 20.335938 20.371094 20.351562 20.351562 C 20.742188 19.851562 20.039062 19.140625 19.644531 19.644531 Z M 19.644531 19.644531 "/>
<path style=" stroke:none;fill-rule:nonzero;fill:rgb(0.392157%,0.392157%,0.392157%);fill-opacity:1;" d="M 25.601562 22.839844 C 25.601562 22.855469 25.601562 22.867188 25.601562 22.882812 C 25.582031 23.414062 26.269531 23.519531 26.53125 23.136719 C 27.84375 21.230469 31.851562 20.710938 33.859375 21.128906 C 37.277344 21.84375 37.472656 24.609375 38.042969 27.558594 C 38.476562 29.789062 38.570312 32.132812 38.523438 34.410156 C 38.488281 36.21875 37.875 38.496094 38.3125 40.269531 C 38.4375 40.785156 39.113281 40.703125 39.273438 40.269531 C 39.28125 40.253906 39.285156 40.238281 39.292969 40.222656 C 39.515625 39.617188 38.550781 39.359375 38.328125 39.957031 C 38.320312 39.972656 38.316406 39.988281 38.3125 40.003906 C 38.632812 40.003906 38.953125 40.003906 39.273438 40.003906 C 38.914062 38.535156 39.484375 36.738281 39.519531 35.226562 C 39.558594 33.625 39.503906 32.011719 39.417969 30.414062 C 39.28125 27.867188 38.972656 24.148438 37.464844 22.019531 C 36.296875 20.363281 33.917969 19.75 31.9375 19.871094 C 30.070312 19.988281 26.796875 20.996094 25.671875 22.632812 C 25.980469 22.714844 26.289062 22.800781 26.601562 22.882812 C 26.601562 22.867188 26.601562 22.851562 26.605469 22.839844 C 26.628906 22.195312 25.628906 22.195312 25.601562 22.839844 Z M 25.601562 22.839844 "/>
<path style=" stroke:none;fill-rule:nonzero;fill:rgb(0.392157%,0.392157%,0.392157%);fill-opacity:1;" d="M 20.382812 39.941406 C 20.34375 39.96875 20.304688 39.992188 20.261719 40.019531 C 19.921875 40.234375 19.941406 40.839844 20.382812 40.933594 C 21.9375 41.261719 23.863281 41.21875 25.4375 40.90625 C 25.652344 40.863281 25.800781 40.632812 25.804688 40.425781 C 25.878906 37.359375 24.863281 33.644531 25.535156 30.652344 C 25.953125 28.804688 27.410156 27.675781 29.023438 26.890625 C 32.03125 25.425781 33.683594 27.816406 33.839844 30.625 C 33.929688 32.257812 33.851562 33.914062 33.910156 35.546875 C 33.953125 36.789062 33.683594 38.316406 33.992188 39.515625 C 34.5 41.46875 36.871094 40.835938 38.339844 40.539062 C 38.96875 40.410156 38.703125 39.449219 38.074219 39.574219 C 36.910156 39.808594 35.425781 40.191406 34.960938 38.933594 C 34.722656 38.285156 34.964844 36.960938 34.9375 36.226562 C 34.851562 34.039062 35.027344 31.777344 34.765625 29.605469 C 34.417969 26.757812 32.164062 24.644531 29.230469 25.660156 C 27.953125 26.105469 26.773438 27.074219 25.78125 27.960938 C 24.355469 29.234375 24.460938 30.433594 24.460938 32.355469 C 24.457031 34.316406 24.777344 36.246094 24.828125 38.199219 C 24.839844 38.585938 24.964844 39.558594 24.816406 39.953125 C 24.742188 40.148438 25.535156 40.175781 24.183594 40.089844 C 23.035156 40.015625 21.773438 40.207031 20.648438 39.96875 C 20.6875 40.273438 20.726562 40.578125 20.765625 40.882812 C 20.808594 40.859375 20.847656 40.832031 20.886719 40.808594 C 21.429688 40.464844 20.929688 39.597656 20.382812 39.941406 Z M 20.382812 39.941406 "/>
</g>
</svg>
