<?xml version="1.0" encoding="UTF-8"?>
<svg xmlns="http://www.w3.org/2000/svg" xmlns:xlink="http://www.w3.org/1999/xlink" width="48pt" height="48pt" viewBox="0 0 48 48" version="1.1">
<g id="surface11745662">
<path style=" stroke:none;fill-rule:nonzero;fill:rgb(18.039216%,80%,44.313725%);fill-opacity:1;" d="M 22.5 3.5 C 18 4 16.523438 4.800781 13 7 C 10.351562 8.652344 8.570312 10.726562 7.3125 13.585938 C 6.054688 16.445312 5.113281 19.4375 4.5 22.5 C 4 25 4.5 28.5 5.5 30.5 C 7.238281 33.980469 8.007812 35.511719 10.5 38.5 C 11.082031 39.199219 12.726562 40.0625 13.460938 40.59375 C 14.402344 41.273438 15.378906 42.195312 16.5 42.5 C 21.234375 43.785156 25 44 30 43 C 34.8125 42.039062 38.550781 39.0625 40.941406 34.777344 C 41.828125 33.191406 42.421875 31.460938 42.910156 29.710938 C 43.539062 27.453125 44 25.125 43.898438 22.785156 C 43.757812 19.609375 42.226562 14.164062 40.5 11.5 C 36.550781 5.402344 29.753906 3.929688 22.5 3.5 Z M 22.5 3.5 "/>
<path style=" stroke:none;fill-rule:nonzero;fill:rgb(15.686275%,23.921569%,35.686275%);fill-opacity:1;" d="M 23.171875 30.203125 L 19.746094 33.578125 C 19.746094 33.578125 19.597656 33.691406 19.398438 33.699219 C 19.328125 33.699219 19.253906 33.6875 19.179688 33.65625 L 20.140625 27.691406 Z M 23.171875 30.203125 "/>
<path style=" stroke:none;fill-rule:nonzero;fill:rgb(0.392157%,0.392157%,0.392157%);fill-opacity:1;" d="M 24.171875 44.128906 C 21.664062 44.128906 19.199219 43.75 16.367188 42.980469 C 15.402344 42.71875 14.585938 42.085938 13.796875 41.476562 C 13.585938 41.3125 13.375 41.148438 13.167969 41 C 12.9375 40.832031 12.617188 40.636719 12.273438 40.417969 C 11.46875 39.921875 10.5625 39.355469 10.117188 38.820312 C 7.578125 35.773438 6.785156 34.191406 5.054688 30.722656 C 3.96875 28.554688 3.511719 24.898438 4.011719 22.398438 C 4.628906 19.304688 5.585938 16.273438 6.855469 13.382812 C 8.152344 10.433594 10.019531 8.269531 12.734375 6.574219 C 16.191406 4.414062 17.777344 3.519531 22.445312 3 L 22.484375 2.996094 L 22.527344 3 C 29.242188 3.394531 36.679688 4.683594 40.917969 11.226562 C 42.742188 14.039062 44.257812 19.636719 44.394531 22.761719 C 44.515625 25.453125 43.878906 28.09375 43.390625 29.84375 C 42.785156 32.015625 42.164062 33.609375 41.378906 35.019531 C 38.824219 39.59375 34.925781 42.523438 30.097656 43.488281 C 27.984375 43.914062 26.066406 44.128906 24.171875 44.128906 Z M 22.511719 4 C 18.144531 4.488281 16.71875 5.265625 13.265625 7.425781 C 10.695312 9.027344 9 10.992188 7.769531 13.785156 C 6.53125 16.609375 5.597656 19.574219 4.992188 22.597656 C 4.527344 24.90625 4.949219 28.277344 5.949219 30.277344 C 7.644531 33.671875 8.421875 35.222656 10.886719 38.179688 C 11.226562 38.589844 12.101562 39.132812 12.800781 39.570312 C 13.171875 39.800781 13.511719 40.011719 13.757812 40.1875 C 13.972656 40.34375 14.191406 40.515625 14.410156 40.683594 C 15.121094 41.238281 15.859375 41.808594 16.632812 42.015625 C 21.433594 43.320312 25.152344 43.457031 29.902344 42.507812 C 34.433594 41.601562 38.101562 38.84375 40.507812 34.535156 C 41.253906 33.195312 41.847656 31.667969 42.429688 29.574219 C 43.1875 26.859375 43.488281 24.773438 43.398438 22.804688 C 43.265625 19.808594 41.820312 14.453125 40.082031 11.769531 C 36.09375 5.617188 28.96875 4.386719 22.511719 4 Z M 22.511719 4 "/>
<path style=" stroke:none;fill-rule:nonzero;fill:rgb(15.686275%,23.921569%,35.686275%);fill-opacity:1;" d="M 20.144531 27.597656 C 19.894531 28.746094 20.046875 29.71875 19.714844 30.847656 C 19.5 31.582031 19.210938 33.285156 18.617188 33.765625 C 17.226562 31.609375 16.859375 28.527344 15.910156 26.316406 L 28.398438 18.324219 L 29.410156 18.347656 L 29.128906 19.421875 Z M 20.144531 27.597656 "/>
<path style=" stroke:none;fill-rule:nonzero;fill:rgb(15.686275%,23.921569%,35.686275%);fill-opacity:1;" d="M 20.679688 28.105469 C 21.734375 29.472656 22.515625 30.179688 23.859375 31.265625 C 25.222656 32.367188 26.648438 33.289062 28.152344 34.183594 C 28.316406 34.28125 28.984375 34.589844 29.15625 34.671875 C 29.585938 34.875 29.878906 34.460938 29.953125 34.257812 C 30.546875 32.679688 30.679688 32.09375 31.046875 30.871094 C 31.726562 28.617188 32.050781 26.8125 32.5 24.5 C 33.078125 21.515625 33.703125 18.003906 33.886719 14.964844 C 33.90625 14.617188 33.871094 14.175781 33.546875 14.046875 C 33.40625 13.988281 32.65625 14.023438 32.507812 14.046875 C 29.152344 14.601562 26.53125 15.765625 23.339844 16.9375 C 22.546875 17.230469 21.75 17.523438 20.953125 17.816406 C 18.058594 18.878906 16.945312 19.621094 14.046875 20.6875 C 13.347656 20.941406 11.746094 21.753906 10.867188 22.144531 C 10.1875 22.449219 10.027344 22.507812 10.382812 23.164062 C 10.597656 23.554688 11.890625 24.492188 12.277344 24.710938 C 13.175781 25.214844 13.820312 25.507812 14.796875 25.820312 C 15.167969 25.9375 15.285156 26.011719 15.675781 26.003906 C 16.160156 25.996094 16.78125 25.492188 17.207031 25.253906 C 19.742188 23.808594 20.84375 22.84375 23.246094 21.417969 C 24.867188 20.457031 26.65625 19.039062 28.398438 18.328125 C 28.734375 18.191406 29.179688 18.074219 29.410156 18.351562 C 29.675781 18.660156 29.40625 19.128906 29.128906 19.425781 C 28.234375 20.382812 26.59375 22.105469 25.566406 22.921875 C 23.542969 24.53125 21.679688 25.835938 20.242188 27.425781 C 20.109375 27.574219 20.554688 27.945312 20.679688 28.105469 Z M 20.679688 28.105469 "/>
<path style=" stroke:none;fill-rule:nonzero;fill:rgb(0.392157%,0.392157%,0.392157%);fill-opacity:1;" d="M 29.382812 35.226562 C 29.234375 35.226562 29.085938 35.195312 28.945312 35.125 L 28.816406 35.0625 C 28.542969 34.933594 28.039062 34.699219 27.898438 34.613281 C 26.679688 33.886719 25.082031 32.894531 23.546875 31.652344 C 22.15625 30.53125 21.359375 29.796875 20.28125 28.410156 C 20.261719 28.382812 20.222656 28.34375 20.183594 28.304688 C 19.945312 28.058594 19.457031 27.546875 19.871094 27.089844 C 21.015625 25.824219 22.421875 24.734375 23.914062 23.578125 C 24.351562 23.238281 24.800781 22.890625 25.257812 22.527344 C 26.253906 21.738281 27.878906 20.03125 28.761719 19.085938 C 28.9375 18.894531 29.011719 18.730469 29.019531 18.664062 C 28.996094 18.679688 28.867188 18.675781 28.589844 18.789062 C 27.480469 19.242188 26.324219 20.011719 25.207031 20.753906 C 24.625 21.140625 24.054688 21.519531 23.503906 21.847656 C 22.410156 22.496094 21.574219 23.054688 20.769531 23.597656 C 19.820312 24.234375 18.839844 24.898438 17.453125 25.683594 C 17.355469 25.738281 17.246094 25.808594 17.132812 25.882812 C 16.691406 26.167969 16.191406 26.492188 15.683594 26.503906 C 15.269531 26.5 15.078125 26.441406 14.820312 26.355469 L 14.640625 26.292969 C 13.679688 25.984375 12.996094 25.683594 12.03125 25.144531 C 11.710938 24.964844 10.253906 23.964844 9.945312 23.402344 C 9.78125 23.105469 9.621094 22.761719 9.738281 22.414062 C 9.863281 22.046875 10.183594 21.902344 10.628906 21.703125 C 10.984375 21.542969 11.402344 21.34375 11.839844 21.136719 C 12.613281 20.765625 13.410156 20.386719 13.875 20.214844 C 15.304688 19.691406 16.316406 19.234375 17.292969 18.792969 C 18.289062 18.34375 19.316406 17.882812 20.78125 17.34375 L 23.167969 16.46875 C 23.777344 16.242188 24.367188 16.019531 24.945312 15.800781 C 27.371094 14.878906 29.664062 14.007812 32.421875 13.550781 C 32.433594 13.550781 33.402344 13.445312 33.734375 13.578125 C 34.0625 13.710938 34.441406 14.066406 34.386719 14.996094 C 34.199219 18.070312 33.574219 21.574219 32.988281 24.59375 L 32.875 25.183594 C 32.488281 27.195312 32.152344 28.929688 31.523438 31.015625 L 31.300781 31.777344 C 31.066406 32.574219 30.882812 33.203125 30.421875 34.433594 C 30.328125 34.679688 30.097656 35.011719 29.742188 35.15625 C 29.625 35.203125 29.503906 35.226562 29.382812 35.226562 Z M 20.828125 27.527344 C 20.855469 27.558594 20.882812 27.589844 20.902344 27.609375 C 20.972656 27.683594 21.035156 27.75 21.074219 27.796875 C 22.09375 29.113281 22.824219 29.785156 24.175781 30.878906 C 25.660156 32.074219 27.21875 33.046875 28.410156 33.753906 C 28.539062 33.832031 28.992188 34.042969 29.238281 34.160156 L 29.371094 34.222656 C 29.402344 34.214844 29.46875 34.136719 29.488281 34.082031 C 29.933594 32.886719 30.113281 32.273438 30.339844 31.5 L 30.570312 30.726562 C 31.183594 28.691406 31.5 27.0625 31.894531 24.996094 L 32.011719 24.40625 C 32.589844 21.414062 33.207031 17.949219 33.390625 14.9375 C 33.410156 14.59375 33.34375 14.496094 33.34375 14.492188 C 33.285156 14.5 32.722656 14.519531 32.589844 14.539062 C 29.929688 14.980469 27.679688 15.832031 25.300781 16.738281 C 24.71875 16.957031 24.128906 17.183594 23.515625 17.40625 L 21.128906 18.28125 C 19.695312 18.808594 18.683594 19.265625 17.707031 19.703125 C 16.714844 20.152344 15.6875 20.617188 14.222656 21.152344 C 13.800781 21.308594 12.988281 21.695312 12.273438 22.039062 C 11.828125 22.25 11.402344 22.453125 11.074219 22.601562 C 10.945312 22.65625 10.824219 22.714844 10.738281 22.757812 C 10.757812 22.796875 10.78125 22.851562 10.820312 22.921875 C 10.96875 23.175781 12.097656 24.035156 12.523438 24.273438 C 13.433594 24.78125 14.042969 25.054688 14.949219 25.34375 L 15.148438 25.410156 C 15.363281 25.484375 15.441406 25.503906 15.664062 25.503906 C 15.890625 25.5 16.3125 25.226562 16.589844 25.046875 C 16.722656 24.960938 16.847656 24.878906 16.960938 24.816406 C 18.3125 24.046875 19.234375 23.425781 20.214844 22.765625 C 21.03125 22.21875 21.875 21.648438 22.992188 20.984375 C 23.527344 20.664062 24.085938 20.296875 24.652344 19.917969 C 25.8125 19.148438 27.007812 18.355469 28.210938 17.863281 C 29.09375 17.5 29.558594 17.75 29.792969 18.023438 C 30.183594 18.480469 30.066406 19.148438 29.496094 19.765625 C 28.394531 20.945312 26.871094 22.519531 25.878906 23.3125 C 25.421875 23.675781 24.96875 24.027344 24.527344 24.367188 C 23.164062 25.425781 21.875 26.425781 20.828125 27.527344 Z M 20.828125 27.527344 "/>
<path style=" stroke:none;fill-rule:nonzero;fill:rgb(0.392157%,0.392157%,0.392157%);fill-opacity:1;" d="M 18.621094 34.269531 C 18.59375 34.269531 18.566406 34.265625 18.542969 34.261719 C 18.402344 34.238281 18.277344 34.15625 18.199219 34.039062 C 17.3125 32.664062 16.835938 30.980469 16.375 29.351562 C 16.085938 28.324219 15.8125 27.351562 15.453125 26.515625 C 15.34375 26.261719 15.460938 25.96875 15.714844 25.859375 C 15.964844 25.75 16.261719 25.867188 16.371094 26.121094 C 16.757812 27.019531 17.039062 28.019531 17.339844 29.078125 C 17.703125 30.363281 18.074219 31.683594 18.644531 32.804688 C 18.828125 32.335938 18.980469 31.714844 19.078125 31.3125 C 19.136719 31.082031 19.1875 30.871094 19.234375 30.710938 C 19.402344 30.144531 19.4375 29.609375 19.472656 29.046875 C 19.503906 28.554688 19.535156 28.050781 19.65625 27.492188 C 19.714844 27.222656 19.984375 27.054688 20.253906 27.109375 C 20.523438 27.167969 20.691406 27.433594 20.636719 27.703125 C 20.53125 28.1875 20.5 28.636719 20.46875 29.109375 C 20.429688 29.703125 20.390625 30.316406 20.195312 30.988281 C 20.152344 31.140625 20.101562 31.335938 20.050781 31.550781 C 19.765625 32.710938 19.488281 33.707031 18.9375 34.15625 C 18.847656 34.230469 18.734375 34.269531 18.621094 34.269531 Z M 18.621094 34.269531 "/>
<path style=" stroke:none;fill-rule:nonzero;fill:rgb(0.392157%,0.392157%,0.392157%);fill-opacity:1;" d="M 18.757812 34.246094 C 18.613281 34.246094 18.46875 34.1875 18.367188 34.0625 C 18.195312 33.851562 18.226562 33.535156 18.441406 33.359375 C 18.574219 33.253906 18.695312 33.144531 18.816406 33.039062 C 19.117188 32.777344 19.425781 32.503906 19.839844 32.265625 C 19.972656 32.191406 20.21875 32.03125 20.644531 31.6875 C 20.765625 31.59375 21.050781 31.289062 21.273438 31.039062 C 21.492188 30.785156 21.644531 30.628906 21.796875 30.46875 C 21.941406 30.3125 22.089844 30.160156 22.300781 29.921875 C 22.480469 29.714844 22.796875 29.691406 23.003906 29.875 C 23.214844 30.058594 23.234375 30.375 23.050781 30.582031 C 22.828125 30.835938 22.675781 30.996094 22.523438 31.15625 C 22.378906 31.308594 22.230469 31.460938 22.023438 31.699219 C 21.902344 31.832031 21.5 32.285156 21.269531 32.46875 C 20.886719 32.777344 20.574219 33 20.339844 33.132812 C 20.011719 33.320312 19.761719 33.539062 19.472656 33.792969 C 19.347656 33.902344 19.214844 34.019531 19.070312 34.136719 C 18.980469 34.210938 18.867188 34.246094 18.757812 34.246094 Z M 18.757812 34.246094 "/>
</g>
</svg>
