<?xml version="1.0" encoding="UTF-8" standalone="no"?>
<!DOCTYPE svg PUBLIC "-//W3C//DTD SVG 1.1//EN" "http://www.w3.org/Graphics/SVG/1.1/DTD/svg11.dtd">
<svg version="1.1" xmlns="http://www.w3.org/2000/svg" xmlns:xlink="http://www.w3.org/1999/xlink" preserveAspectRatio="xMidYMid meet" viewBox="0 0 130.66 128.63" width="130.66" height="128.63"><defs><path d="M124.53 59.4C121.83 55.8 117.93 51.8 113.63 49.9C113.73 49.8 113.83 49.6 113.83 49.4C114.13 47 114.03 44.8 113.53 42.6C113.93 42.8 114.23 43.1 114.53 43.5C115.53 44.7 117.33 43.2 116.63 41.9C115.53 39.7 114.43 37.4 113.33 35.2C113.43 35.3 113.53 35.3 113.63 35.4C114.63 35.9 116.03 35.1 115.63 33.9C113.93 29.1 110.33 26.3 106.43 23.5C108.53 23.8 110.73 24 112.93 23.6C114.13 23.4 114.13 21.7 113.23 21.1C107.73 17.6 101.73 15 95.93 12.2C95.53 12 95.23 12 94.83 12.1C94.43 11.8 94.13 11.5 93.73 11.3C95.43 11 97.13 10.5 98.83 9.8C100.23 9.2 99.33 7.4 98.13 7.3C95.23 6.9 92.23 6.7 89.33 6.5C89.43 5.6 88.73 4.6 87.73 5C86.43 5.4 85.23 5.8 83.93 6.1C83.93 6.1 83.93 6 83.93 6C83.83 5.2 83.13 4.4 82.23 4.7C81.33 5 80.33 5 79.33 5C79.43 4.4 79.63 3.7 79.73 3.1C79.93 2.3 79.23 1.3 78.43 1.4C78.13 0.7 77.23 0.3 76.53 0.7C75.23 1.4 73.83 1.7 72.43 2.1C72.23 1.8 72.13 1.5 72.03 1.2C71.83 0.7 71.43 0.3 70.93 0.3C70.43 -0.1 69.53 -0.1 69.03 0.3C66.53 2.9 63.63 3.4 60.83 0.9C60.03 0.2 58.93 0.5 58.63 1.5C57.13 5.5 54.33 3 52.83 1.9C51.83 1.1 50.63 2.4 50.83 3.4C51.03 4.2 51.23 5.1 51.43 5.9C50.63 6.2 49.73 6.4 48.93 6.8C46.93 6.6 44.93 6 42.93 5.3C41.93 5 41.13 5.9 41.33 6.8C38.33 7.1 35.43 7.2 32.53 7.6C31.43 7.7 30.43 9.5 31.83 10.1C33.53 10.8 35.23 11.3 36.93 11.6C36.53 11.9 36.23 12.2 35.83 12.4C35.53 12.3 35.13 12.3 34.73 12.5C28.93 15.4 22.93 17.9 17.43 21.4C16.53 22 16.53 23.6 17.73 23.9C19.93 24.3 22.03 24.2 24.23 23.8C20.33 26.5 16.73 29.3 15.03 34.2C14.63 35.4 16.03 36.2 17.03 35.7C17.13 35.6 17.23 35.6 17.33 35.5C16.23 37.7 15.13 40 14.03 42.2C13.43 43.5 15.13 45.1 16.13 43.8C16.43 43.4 16.73 43.2 17.13 42.9C16.63 45.1 16.53 47.4 16.83 49.7C16.83 49.9 16.93 50 17.03 50.2C12.73 52.2 8.83 56.2 6.13 59.7C2.13 65 0.43 71 0.03 77.5C-0.27 83.2 1.83 88.4 5.63 92.6C8.83 96.1 12.93 99.8 17.43 101.9C17.43 102 17.33 102 17.33 102.1C16.93 103.4 18.63 104.3 19.53 103.4C19.73 103.2 19.93 103.1 20.03 102.9C20.13 102.9 20.13 102.9 20.23 103C20.03 104.3 19.83 105.6 19.63 106.9C19.43 108.2 20.83 109.1 21.83 108.2C22.23 107.8 22.73 107.4 23.23 107.1C22.63 109.4 22.53 111.7 23.23 114.2C23.43 114.9 24.03 115.2 24.53 115.1C24.63 115.2 24.73 115.4 24.83 115.5C21.43 118.3 19.23 122 21.23 125.5C23.83 129.8 30.73 128.9 34.53 127.3C39.43 125.3 43.53 121.4 46.93 117.4C50.33 117 53.83 116.4 57.23 116.3C57.43 116.4 57.63 116.4 57.83 116.4C58.31 116.4 62.15 116.4 62.63 116.4C63.03 116.4 63.33 116.3 63.63 116C65.13 115.9 66.73 115.8 68.23 115.9C68.43 116.2 69.03 116.8 69.23 116.4C69.33 116.3 69.43 116.2 69.43 116.1C69.71 116.1 71.95 116.1 72.23 116.1C72.43 116.1 72.63 116.1 72.83 116C76.33 116.2 79.73 116.7 83.13 117.1C86.53 121.1 90.73 125 95.53 127C99.33 128.5 106.23 129.5 108.83 125.2C110.93 121.7 108.63 118 105.23 115.2C105.33 115.1 105.43 115 105.53 114.8C106.13 114.8 106.73 114.5 106.83 113.9C107.43 111.4 107.33 109.1 106.83 106.8C107.33 107.2 107.73 107.5 108.23 107.9C109.23 108.8 110.73 107.9 110.43 106.6C110.23 105.3 110.03 104 109.83 102.7C109.93 102.7 109.93 102.7 110.03 102.6C110.23 102.8 110.43 102.9 110.53 103.1C111.43 104 113.23 103.1 112.73 101.8C112.73 101.7 112.63 101.7 112.63 101.6C117.13 99.5 121.33 95.8 124.43 92.3C128.93 88.1 130.93 82.9 130.63 77.2C130.33 70.7 128.53 64.7 124.53 59.4ZM15.23 84.5C13.33 82.1 14.23 78.5 15.83 75.8C16.03 76.8 17.23 77.1 18.03 76.5C18.33 76.3 18.63 76 18.93 75.8C18.53 78 18.43 80.1 18.73 82.4C18.83 83.3 20.03 83.6 20.73 83.2C20.73 83.2 20.73 83.2 20.73 83.2C20.23 84.8 19.53 86.3 18.93 87.7C17.53 86.8 16.23 85.8 15.23 84.5ZM112.23 87.3C111.63 85.9 111.23 84.6 110.93 83.1C110.93 83.1 111.03 83.1 111.03 83.1C111.13 83.1 111.23 83.2 111.33 83.2C112.23 83.7 113.83 82.9 113.33 81.7C112.93 80.8 112.63 79.8 112.43 78.9C112.43 78.3 112.33 77.7 112.33 77.1C112.63 76.8 112.73 76.4 112.73 76C112.83 76.1 112.93 76.1 112.93 76.2C113.73 76.8 114.93 76.6 115.13 75.5C116.73 78.3 117.63 81.8 115.73 84.2C114.73 85.5 113.53 86.4 112.23 87.3Z" id="aFqB6WUPG"></path><path d="M77.33 59.2C76.83 59.2 76.33 59.4 76.13 60.1C75.73 61.6 75.93 63.5 77.23 64.6C77.93 65.2 78.83 65.4 79.63 64.9C80.53 64.4 80.73 63.3 80.93 62.4C80.93 60.8 80.13 58.8 78.33 58.9C77.93 58.9 77.53 59.1 77.33 59.2Z" id="i18mqn6HH"></path><path d="M55.13 59.2C54.63 59.2 54.13 59.4 53.93 60.1C53.53 61.6 53.73 63.5 55.03 64.6C55.73 65.2 56.63 65.4 57.43 64.9C58.33 64.4 58.53 63.3 58.73 62.4C58.73 60.8 57.93 58.8 56.13 58.9C55.73 58.9 55.33 59.1 55.13 59.2Z" id="at6OPr541"></path><path d="M16.53 76.8C11.63 70.9 13.23 59.8 13.43 52.5C12.53 53.2 11.73 53.9 10.93 54.7C10.63 62.5 9.73 72.5 14.73 78.5C14.93 77.5 15.33 76.7 15.83 75.9C15.93 76.3 16.23 76.6 16.53 76.8ZM9.93 96.6C13.33 94 16.33 91.1 18.33 87.3C17.63 86.8 16.93 86.3 16.33 85.7C14.43 89.6 11.43 92.4 8.13 94.9C8.73 95.5 9.33 96 9.93 96.6ZM14.23 82.1C11.93 85.7 6.33 86 2.53 87.7C2.93 88.4 3.33 89.1 3.73 89.8C7.53 88.1 12.53 87.7 15.33 84.7C15.33 84.7 15.23 84.6 15.23 84.5C14.63 83.8 14.33 83 14.23 82.1ZM0.83 72.8C0.73 73.6 0.53 74.5 0.53 75.3C5.13 77.4 9.73 79.6 14.23 81.8C14.13 81 14.23 80.1 14.43 79.2C9.93 77 5.43 74.9 0.83 72.8Z" id="a1KMc0qz7i"></path><path d="M120.13 54.2C119.33 53.4 118.43 52.7 117.63 52C117.83 59.3 119.43 70.4 114.53 76.3C114.93 76.2 115.13 75.9 115.23 75.4C115.63 76.3 116.03 77.2 116.33 78C121.23 72.1 120.43 62 120.13 54.2ZM112.63 87.1C114.63 90.9 117.63 93.8 121.03 96.4C121.63 95.8 122.23 95.3 122.83 94.7C119.53 92.1 116.53 89.3 114.63 85.5C114.03 86.1 113.33 86.6 112.63 87.1ZM127.23 89.5C127.73 88.8 128.13 88.1 128.43 87.4C124.53 85.8 119.03 85.4 116.73 81.8C116.63 82.7 116.33 83.5 115.73 84.2C115.73 84.3 115.63 84.3 115.63 84.4C118.53 87.4 123.43 87.8 127.23 89.5ZM130.43 75C130.33 74.1 130.23 73.3 130.13 72.5C125.53 74.5 121.03 76.7 116.53 78.9C116.73 79.8 116.83 80.7 116.73 81.5C121.33 79.3 125.83 77.1 130.43 75Z" id="ba3KhgqHA"></path><path d="M45.23 24.8C45.63 26.5 45.33 28.2 45.23 29.8C45.03 31.4 47.53 31.4 47.73 29.8C47.83 27.8 48.03 25.9 47.63 24.1C47.33 22.5 44.93 23.2 45.23 24.8Z" id="joXgebSXk"></path><path d="M51.63 18.9C51.03 18.9 50.33 19.5 50.43 20.1C50.63 21.6 50.63 23.1 50.43 24.6C50.33 25.3 51.03 25.8 51.63 25.8C52.33 25.8 52.73 25.2 52.83 24.6C53.03 23.1 53.03 21.6 52.83 20.1C52.73 19.4 52.33 18.9 51.63 18.9Z" id="acd66kCOp"></path><path d="M57.33 21.1C57.33 22.7 59.83 22.7 59.83 21.1C59.83 20.67 59.83 17.23 59.83 16.8C59.83 15.2 57.33 15.2 57.33 16.8C57.33 17.66 57.33 20.67 57.33 21.1Z" id="a39ZqkfTOn"></path><path d="M58.13 30.2C58.13 31.8 60.63 31.8 60.63 30.2C60.63 29.87 60.63 27.23 60.63 26.9C60.63 25.3 58.13 25.3 58.13 26.9C58.13 27.56 58.13 29.87 58.13 30.2Z" id="a6yjwzB1Ul"></path><path d="M66.73 16.6C66.13 16.4 65.33 16.8 65.23 17.5C65.03 18.9 65.13 20.2 65.23 21.5C65.23 23.1 67.73 23.1 67.73 21.5C67.63 20.4 67.43 19.2 67.63 18.1C67.73 17.4 67.43 16.8 66.73 16.6Z" id="cYswSVZPj"></path><path d="M67.43 27.7C66.83 28.1 66.73 28.8 67.03 29.4C67.03 29.4 67.03 29.4 67.03 29.4C67.03 29.4 67.03 29.4 67.03 29.4C67.03 29.4 67.03 29.4 67.03 29.4C67.03 29.4 67.03 29.4 67.03 29.4C66.73 30 66.83 30.7 67.43 31.1C67.93 31.4 68.83 31.3 69.13 30.7C69.53 29.7 69.53 29 69.13 28.1C68.83 27.5 67.93 27.3 67.43 27.7Z" id="g4pyYOUf56"></path><path d="M66.93 29.3C66.93 29.3 66.93 29.3 66.93 29.3C66.93 29.37 66.93 29.37 66.93 29.3Z" id="a512Iij6h"></path><path d="M66.93 29.3C66.93 29.3 66.93 29.3 66.93 29.3C66.93 29.3 66.93 29.3 66.93 29.3C66.93 29.3 66.93 29.3 66.93 29.3C66.93 29.3 66.93 29.3 66.93 29.3C66.93 29.3 66.93 29.3 66.93 29.3C66.93 29.3 66.93 29.3 66.93 29.3C66.93 29.3 66.93 29.3 66.93 29.3C66.93 29.3 66.93 29.3 66.93 29.3Z" id="b44JBT6KYp"></path><path d="M74.13 17.2C73.43 17.4 73.13 18.1 73.23 18.7C73.43 19.8 73.43 21 73.43 22.1C73.43 23.7 75.93 23.7 75.93 22.1C75.83 20.8 75.83 19.4 75.63 18.1C75.53 17.4 74.73 17.1 74.13 17.2Z" id="cA6or5x7q"></path><path d="M82.73 27.3C82.73 28.9 85.23 28.9 85.23 27.3C85.23 25.5 85.03 23.6 85.43 21.9C85.63 20.3 83.23 19.6 82.93 21.2C82.53 23.2 82.63 25.3 82.73 27.3Z" id="g1Qw3GK9KY"></path><path d="M76.13 32.4C76.13 34 78.63 34 78.63 32.4C78.63 30.5 78.63 28.5 78.83 26.6C78.93 25.1 76.43 25.1 76.33 26.6C76.13 28.5 76.13 30.4 76.13 32.4Z" id="ewUGAitEW"></path><path d="M30.73 114C30.73 114.8 30.93 115.5 30.93 116.3C30.93 117.9 33.43 117.9 33.43 116.3C33.43 115.4 33.23 114.8 33.23 114C33.23 112.4 30.73 112.4 30.73 114Z" id="h3UIAam7n9"></path><path d="M34.63 113.2C34.03 113.6 33.93 114.3 34.23 114.9C34.13 114.8 34.13 114.8 34.23 114.9C34.23 114.9 34.23 115 34.23 115C34.23 115 34.23 115.1 34.23 115.1C34.23 115.3 34.23 115.5 34.23 115.7C34.23 117.3 36.73 117.3 36.73 115.7C36.73 114.9 36.63 114.2 36.33 113.6C36.03 113 35.13 112.8 34.63 113.2Z" id="gmfNP0hDr"></path><path d="M89.03 112.6C88.83 112 88.13 111.6 87.53 111.7C86.93 111.9 86.43 112.6 86.63 113.2C86.83 113.9 86.83 114.6 87.03 115.3C87.23 115.9 87.93 116.3 88.53 116.2C89.23 116 89.63 115.3 89.43 114.7C89.23 114 89.23 113.3 89.03 112.6Z" id="h1aMdqsUkI"></path><path d="M90.53 114.9C90.53 116.5 93.03 116.5 93.03 114.9C93.03 114.69 93.03 113.01 93.03 112.8C92.93 111.2 90.53 111.2 90.53 112.8C90.53 113.22 90.53 114.69 90.53 114.9Z" id="bbz5rTEUC"></path><path d="M89.33 84.4C87.43 84.7 85.63 85.4 83.73 85.6C82.53 85.3 81.53 87.2 82.83 87.9C84.33 88.7 85.83 89.3 87.23 90.2C87.63 90.5 88.43 90.4 88.73 90C89.63 88.9 90.43 87.8 91.33 86.7C92.13 85.7 91.43 84.4 90.23 84.6C90.03 84.4 89.73 84.3 89.33 84.4Z" id="a1gQjDIWE"></path><path d="M94.03 83.2C93.33 83.3 93.03 84.1 93.13 84.7C93.23 84.9 93.23 85 93.43 85.2C93.53 85.3 93.63 85.5 93.83 85.6C94.83 86.1 95.83 86.7 96.63 87.4C97.33 88 98.43 87.8 98.73 86.9C99.13 85.6 99.53 84.4 99.73 83.1C99.83 82.2 98.83 81.6 98.13 81.8C96.73 82.2 95.43 83 94.03 83.2Z" id="afuRN2UaG"></path><path d="M44.33 84.4C46.23 84.7 48.03 85.4 49.93 85.6C51.13 85.3 52.13 87.2 50.83 87.9C49.33 88.7 47.83 89.3 46.43 90.2C46.03 90.5 45.23 90.4 44.93 90C44.03 88.9 43.23 87.8 42.33 86.7C41.53 85.7 42.23 84.4 43.43 84.6C43.63 84.4 44.03 84.3 44.33 84.4Z" id="bwn7FzBhY"></path><path d="M39.63 83.2C40.33 83.3 40.63 84.1 40.53 84.7C40.43 84.9 40.43 85 40.23 85.2C40.13 85.3 40.03 85.5 39.83 85.6C38.83 86.1 37.83 86.7 37.03 87.4C36.33 88 35.23 87.8 34.93 86.9C34.53 85.6 34.13 84.4 33.93 83.1C33.83 82.2 34.83 81.6 35.53 81.8C36.93 82.2 38.23 83 39.63 83.2Z" id="aQXkYBeTF"></path><path d="M98.93 79.6C89.43 84.4 79.13 85 68.63 85C68.03 85 67.43 85 66.83 85C66.23 85 65.63 85 65.03 85C54.53 85 44.23 84.4 34.73 79.6C33.83 79.2 33.03 79.8 32.83 80.6C32.73 80.8 32.63 81 32.63 81.3C32.63 83.7 32.93 87.2 34.63 89C35.63 90.1 37.03 90.1 38.23 89.3C38.93 88.8 39.53 88.1 40.03 87.5C40.23 87.2 40.53 86.8 40.83 86.6C41.83 88.7 42.93 91.4 45.13 92.1C48.23 93.1 49.63 89.9 52.03 88.9C52.53 88.4 53.13 87.9 53.53 87.4C53.63 87.2 53.83 87.1 54.03 87.1C54.03 87.1 54.03 87.1 53.93 87C56.03 87.2 58.13 87.3 60.33 87.3C60.33 87.3 60.33 87.3 60.33 87.4C61.13 87.4 61.83 87.4 62.63 87.4C62.63 87.4 62.63 87.4 62.63 87.4C63.73 87.4 64.73 87.4 65.83 87.4C65.83 87.4 65.83 87.4 65.83 87.4C66.23 87.4 66.63 87.4 66.93 87.4C67.33 87.4 67.73 87.4 68.03 87.4C68.03 87.4 68.03 87.4 68.03 87.4C69.13 87.4 70.13 87.4 71.23 87.4C71.23 87.4 71.23 87.4 71.23 87.4C72.03 87.4 72.73 87.4 73.53 87.4C73.53 87.4 73.53 87.4 73.53 87.3C75.63 87.2 77.83 87.1 79.93 87C79.93 87 79.93 87 79.93 87.1C80.13 87.1 80.33 87.2 80.43 87.4C80.83 87.9 81.43 88.4 81.93 88.9C84.33 89.9 85.73 93 88.83 92.1C91.03 91.4 92.13 88.8 93.13 86.6C93.43 86.9 93.73 87.3 93.93 87.5C94.43 88.2 95.03 88.9 95.73 89.3C96.93 90.1 98.33 90.1 99.33 89C101.03 87.1 101.33 83.7 101.33 81.3C101.03 81.1 101.03 80.8 100.83 80.6C100.73 79.9 99.83 79.2 98.93 79.6ZM36.23 87.2C35.53 85.9 35.23 84.2 35.13 82.6C36.63 83.3 38.13 83.9 39.73 84.4C39.03 84.8 38.53 85.5 38.03 86.1C37.53 86.7 36.73 88.1 36.23 87.2ZM46.23 89.8C44.63 89.7 43.63 87 42.83 85.3C45.43 86 48.13 86.5 50.83 86.8C50.33 87 49.83 87.3 49.43 87.6C48.63 88.2 47.33 89.9 46.23 89.8ZM84.23 87.6C83.83 87.3 83.43 87 82.93 86.7C85.63 86.4 88.23 85.9 90.93 85.2C90.13 87 89.03 89.7 87.43 89.8C86.33 89.9 85.03 88.3 84.23 87.6ZM95.63 86.1C95.13 85.5 94.63 84.8 93.93 84.4C95.43 83.9 97.03 83.3 98.53 82.6C98.43 84.2 98.13 85.8 97.43 87.2C96.93 88.1 96.13 86.7 95.63 86.1Z" id="f5POLTRww"></path></defs><g><g><g><use xlink:href="#aFqB6WUPG" opacity="1" fill="#09a380" fill-opacity="1"></use><g><use xlink:href="#aFqB6WUPG" opacity="1" fill-opacity="0" stroke="#000000" stroke-width="1" stroke-opacity="0"></use></g></g><g><use xlink:href="#i18mqn6HH" opacity="1" fill="#333333" fill-opacity="1"></use><g><use xlink:href="#i18mqn6HH" opacity="1" fill-opacity="0" stroke="#000000" stroke-width="1" stroke-opacity="0"></use></g></g><g><use xlink:href="#at6OPr541" opacity="1" fill="#333333" fill-opacity="1"></use><g><use xlink:href="#at6OPr541" opacity="1" fill-opacity="0" stroke="#000000" stroke-width="1" stroke-opacity="0"></use></g></g><g><use xlink:href="#a1KMc0qz7i" opacity="1" fill="#ffffff" fill-opacity="1"></use><g><use xlink:href="#a1KMc0qz7i" opacity="1" fill-opacity="0" stroke="#000000" stroke-width="1" stroke-opacity="0"></use></g></g><g><use xlink:href="#ba3KhgqHA" opacity="1" fill="#ffffff" fill-opacity="1"></use><g><use xlink:href="#ba3KhgqHA" opacity="1" fill-opacity="0" stroke="#000000" stroke-width="1" stroke-opacity="0"></use></g></g><g><use xlink:href="#joXgebSXk" opacity="1" fill="#333333" fill-opacity="1"></use><g><use xlink:href="#joXgebSXk" opacity="1" fill-opacity="0" stroke="#000000" stroke-width="1" stroke-opacity="0"></use></g></g><g><use xlink:href="#acd66kCOp" opacity="1" fill="#333333" fill-opacity="1"></use><g><use xlink:href="#acd66kCOp" opacity="1" fill-opacity="0" stroke="#000000" stroke-width="1" stroke-opacity="0"></use></g></g><g><use xlink:href="#a39ZqkfTOn" opacity="1" fill="#333333" fill-opacity="1"></use><g><use xlink:href="#a39ZqkfTOn" opacity="1" fill-opacity="0" stroke="#000000" stroke-width="1" stroke-opacity="0"></use></g></g><g><use xlink:href="#a6yjwzB1Ul" opacity="1" fill="#333333" fill-opacity="1"></use><g><use xlink:href="#a6yjwzB1Ul" opacity="1" fill-opacity="0" stroke="#000000" stroke-width="1" stroke-opacity="0"></use></g></g><g><use xlink:href="#cYswSVZPj" opacity="1" fill="#333333" fill-opacity="1"></use><g><use xlink:href="#cYswSVZPj" opacity="1" fill-opacity="0" stroke="#000000" stroke-width="1" stroke-opacity="0"></use></g></g><g><use xlink:href="#g4pyYOUf56" opacity="1" fill="#333333" fill-opacity="1"></use><g><use xlink:href="#g4pyYOUf56" opacity="1" fill-opacity="0" stroke="#000000" stroke-width="1" stroke-opacity="0"></use></g></g><g><use xlink:href="#a512Iij6h" opacity="1" fill="#333333" fill-opacity="1"></use><g><use xlink:href="#a512Iij6h" opacity="1" fill-opacity="0" stroke="#000000" stroke-width="1" stroke-opacity="0"></use></g></g><g><use xlink:href="#b44JBT6KYp" opacity="1" fill="#333333" fill-opacity="1"></use><g><use xlink:href="#b44JBT6KYp" opacity="1" fill-opacity="0" stroke="#000000" stroke-width="1" stroke-opacity="0"></use></g></g><g><use xlink:href="#cA6or5x7q" opacity="1" fill="#333333" fill-opacity="1"></use><g><use xlink:href="#cA6or5x7q" opacity="1" fill-opacity="0" stroke="#000000" stroke-width="1" stroke-opacity="0"></use></g></g><g><use xlink:href="#g1Qw3GK9KY" opacity="1" fill="#333333" fill-opacity="1"></use><g><use xlink:href="#g1Qw3GK9KY" opacity="1" fill-opacity="0" stroke="#000000" stroke-width="1" stroke-opacity="0"></use></g></g><g><use xlink:href="#ewUGAitEW" opacity="1" fill="#333333" fill-opacity="1"></use><g><use xlink:href="#ewUGAitEW" opacity="1" fill-opacity="0" stroke="#000000" stroke-width="1" stroke-opacity="0"></use></g></g><g><use xlink:href="#h3UIAam7n9" opacity="1" fill="#333333" fill-opacity="1"></use><g><use xlink:href="#h3UIAam7n9" opacity="1" fill-opacity="0" stroke="#000000" stroke-width="1" stroke-opacity="0"></use></g></g><g><use xlink:href="#gmfNP0hDr" opacity="1" fill="#333333" fill-opacity="1"></use><g><use xlink:href="#gmfNP0hDr" opacity="1" fill-opacity="0" stroke="#000000" stroke-width="1" stroke-opacity="0"></use></g></g><g><use xlink:href="#h1aMdqsUkI" opacity="1" fill="#333333" fill-opacity="1"></use><g><use xlink:href="#h1aMdqsUkI" opacity="1" fill-opacity="0" stroke="#000000" stroke-width="1" stroke-opacity="0"></use></g></g><g><use xlink:href="#bbz5rTEUC" opacity="1" fill="#333333" fill-opacity="1"></use><g><use xlink:href="#bbz5rTEUC" opacity="1" fill-opacity="0" stroke="#000000" stroke-width="1" stroke-opacity="0"></use></g></g><g><use xlink:href="#a1gQjDIWE" opacity="1" fill="#ffffff" fill-opacity="1"></use><g><use xlink:href="#a1gQjDIWE" opacity="1" fill-opacity="0" stroke="#000000" stroke-width="1" stroke-opacity="0"></use></g></g><g><use xlink:href="#afuRN2UaG" opacity="1" fill="#ffffff" fill-opacity="1"></use><g><use xlink:href="#afuRN2UaG" opacity="1" fill-opacity="0" stroke="#000000" stroke-width="1" stroke-opacity="0"></use></g></g><g><use xlink:href="#bwn7FzBhY" opacity="1" fill="#ffffff" fill-opacity="1"></use><g><use xlink:href="#bwn7FzBhY" opacity="1" fill-opacity="0" stroke="#000000" stroke-width="1" stroke-opacity="0"></use></g></g><g><use xlink:href="#aQXkYBeTF" opacity="1" fill="#ffffff" fill-opacity="1"></use><g><use xlink:href="#aQXkYBeTF" opacity="1" fill-opacity="0" stroke="#000000" stroke-width="1" stroke-opacity="0"></use></g></g><g><use xlink:href="#f5POLTRww" opacity="1" fill="#333333" fill-opacity="1"></use><g><use xlink:href="#f5POLTRww" opacity="1" fill-opacity="0" stroke="#000000" stroke-width="1" stroke-opacity="0"></use></g></g></g></g></svg>